<?xml version="1.0" encoding="UTF-8" standalone="no"?>
<svg
   xmlns:dc="http://purl.org/dc/elements/1.1/"
   xmlns:cc="http://creativecommons.org/ns#"
   xmlns:rdf="http://www.w3.org/1999/02/22-rdf-syntax-ns#"
   xmlns:svg="http://www.w3.org/2000/svg"
   xmlns="http://www.w3.org/2000/svg"
   xmlns:xlink="http://www.w3.org/1999/xlink"
   xmlns:sodipodi="http://sodipodi.sourceforge.net/DTD/sodipodi-0.dtd"
   xmlns:inkscape="http://www.inkscape.org/namespaces/inkscape"
   width="210mm"
   height="297mm"
   viewBox="0 0 210 297"
   version="1.1"
   id="svg8"
   inkscape:version="1.0.1 (3bc2e813f5, 2020-09-07)"
   sodipodi:docname="Научная база Ряжков.svg"
   inkscape:export-filename="D:\Lab\Lab-processings\Exp2022\Заповедник\Научная база Ряжков.png"
   inkscape:export-xdpi="600"
   inkscape:export-ydpi="600">
  <defs
     id="defs2" />
  <sodipodi:namedview
     id="base"
     pagecolor="#ffffff"
     bordercolor="#666666"
     borderopacity="1.0"
     inkscape:pageopacity="0.0"
     inkscape:pageshadow="2"
     inkscape:zoom="0.47007769"
     inkscape:cx="-207.70251"
     inkscape:cy="699.44535"
     inkscape:document-units="mm"
     inkscape:current-layer="layer1"
     inkscape:document-rotation="0"
     showgrid="false"
     showguides="true"
     inkscape:window-width="1920"
     inkscape:window-height="1001"
     inkscape:window-x="-9"
     inkscape:window-y="-9"
     inkscape:window-maximized="1"
     inkscape:guide-bbox="true" />
  <metadata
     id="metadata5">
    <rdf:RDF>
      <cc:Work
         rdf:about="">
        <dc:format>image/svg+xml</dc:format>
        <dc:type
           rdf:resource="http://purl.org/dc/dcmitype/StillImage" />
        <dc:title />
      </cc:Work>
    </rdf:RDF>
  </metadata>
  <g
     inkscape:label="Слой 1"
     inkscape:groupmode="layer"
     id="layer1">
    <g
       id="g872"
       transform="matrix(0.88455743,0,0,0.88455743,5.1848175,-11.818666)">
      <text
         xml:space="preserve"
         style="font-style:normal;font-variant:normal;font-weight:bold;font-stretch:normal;font-size:22.5778px;line-height:1.25;font-family:'Comic Sans MS';-inkscape-font-specification:'Comic Sans MS, Bold';font-variant-ligatures:normal;font-variant-caps:normal;font-variant-numeric:normal;font-variant-east-asian:normal;stroke:#050003;stroke-width:0.264583;stroke-opacity:0.988189"
         id="text835"
         transform="rotate(-16.492838,99.971885,107.05082)"><textPath
           xlink:href="#path837"
           id="textPath844"
           dx="1.6885507 0 0 0 0 0 2.2514009"
           dy="-26.45397">Кандалакшский</textPath></text>
      <ellipse
         style="opacity:0.998;fill:none;stroke:none;stroke-width:0.439973;stroke-miterlimit:4;stroke-dasharray:none;stroke-opacity:0.988189"
         id="path837"
         cx="-153.64458"
         cy="-56.075592"
         rx="64.307281"
         ry="63.482563"
         transform="matrix(-0.87193261,-0.4896259,0.54475804,-0.83859327,0,0)" />
      <text
         xml:space="preserve"
         style="font-style:normal;font-variant:normal;font-weight:bold;font-stretch:normal;font-size:22.5778px;line-height:1.25;font-family:'Comic Sans MS';-inkscape-font-specification:'Comic Sans MS, Bold';font-variant-ligatures:normal;font-variant-caps:normal;font-variant-numeric:normal;font-variant-east-asian:normal;stroke:#050003;stroke-width:0.264583;stroke-opacity:0.988189"
         id="text835-1"
         transform="rotate(12.226244,43.264615,156.2554)"><textPath
           xlink:href="#path837-2"
           id="textPath886"
           dy="39.399513">заповедник</textPath></text>
      <ellipse
         style="opacity:0.998;fill:none;stroke:none;stroke-width:0.447255;stroke-miterlimit:4;stroke-dasharray:none;stroke-opacity:0.988189"
         id="path837-2"
         cx="26.151276"
         cy="158.87769"
         rx="64.968941"
         ry="64.933273"
         transform="matrix(-0.70771249,0.70650055,0.75827203,0.65193829,0,0)" />
      <g
         id="g928"
         transform="matrix(0.90399228,0,0,0.97014127,-237.14959,37.57653)">
        <path
           style="fill:#000000;stroke-width:0.28155"
           d="m 386.48033,77.489847 c 0.074,-0.74133 0.13473,-1.76473 0.13473,-2.2742 0,-0.74256 0.11412,-0.92634 0.57513,-0.92634 0.46104,0 0.57513,0.18384 0.57513,0.92634 0,0.50947 0.0607,1.53287 0.13473,2.2742 0.074,0.74131 0.0645,1.13077 -0.0204,0.86544 -0.0858,-0.26531 -0.39571,-0.48241 -0.68885,-0.48241 -0.29313,0 -0.60312,0.2171 -0.68884,0.48241 -0.0858,0.26533 -0.0953,-0.12416 -0.0204,-0.86544 z m 0.9975,-1.54659 c 0,-0.60645 -0.12929,-1.10263 -0.28757,-1.10263 -0.15805,0 -0.28757,0.49618 -0.28757,1.10263 0,0.60646 0.12952,1.10265 0.28757,1.10265 0.15828,0 0.28757,-0.49619 0.28757,-1.10265 z m -15.81614,1.3783 c -0.20877,-0.37379 -0.21195,-0.55131 -0.009,-0.55131 0.16371,0 0.29769,0.14889 0.29769,0.33079 0,0.25057 0.0808,0.25339 0.33289,0.0108 0.24561,-0.23544 0.24878,-0.41627 0.0113,-0.68971 -0.17638,-0.20382 -0.24596,-0.64509 -0.15442,-0.9806 0.13178,-0.48285 0.0686,-0.574 -0.30285,-0.43736 -0.35099,0.12915 -0.42308,0.0573 -0.28605,-0.28508 0.35453,-0.88561 1.11449,-0.35337 1.16258,0.81421 0.089,2.1607 -0.38939,2.97373 -1.05172,1.78739 z m 2.19981,-0.0638 c -0.17164,-0.62916 0.24293,-1.59021 0.68597,-1.59021 0.15261,0 0.27744,-0.19926 0.27744,-0.44299 0,-0.2805 -0.15827,-0.38477 -0.43135,-0.2843 -0.26274,0.0966 -0.43135,5.5e-4 -0.43135,-0.24618 0,-0.22265 0.25881,-0.40483 0.57514,-0.40483 0.51415,0 0.57513,0.18385 0.57513,1.73312 0,1.5056 -0.0718,1.73833 -0.54683,1.77262 -0.33392,0.0241 -0.60808,-0.18514 -0.70415,-0.53723 z m 0.96341,-0.48757 c 0,-0.30322 -0.12929,-0.55132 -0.28756,-0.55132 -0.15828,0 -0.28757,0.2481 -0.28757,0.55132 0,0.30323 0.12929,0.55132 0.28757,0.55132 0.15805,0 0.28756,-0.24809 0.28756,-0.55132 z m 1.43783,-0.67287 c 0,-1.74484 0.0251,-1.80807 0.71892,-1.80807 0.70121,0 0.71758,0.0458 0.66455,1.8607 l -0.0543,1.86071 -0.10371,-1.58504 c -0.12679,-1.93631 -0.65019,-2.11586 -0.65019,-0.22303 0,0.74913 -0.12929,1.43871 -0.28756,1.53241 -0.18047,0.10701 -0.28757,-0.50252 -0.28757,-1.63768 z m 2.93318,1.44472 c -0.39988,-0.38332 -0.45558,-2.38301 -0.0822,-2.94839 0.51105,-0.7737 1.17488,-0.10679 1.17488,1.18054 0,1.90807 -0.35215,2.47779 -1.09276,1.76785 z m 0.75066,-1.52991 c -0.0985,-1.13935 -0.60962,-1.40435 -0.75902,-0.39344 -0.11751,0.79433 0.11956,1.42716 0.53431,1.42716 0.18703,0 0.27785,-0.4182 0.22462,-1.03372 z m 1.49235,0.069 c 0,-1.60801 0.0589,-1.79179 0.57514,-1.79179 0.31632,0 0.5872,0.0931 0.60194,0.20685 0.31055,2.39447 0.0833,3.37684 -0.78093,3.37684 -0.29586,0 -0.39615,-0.45365 -0.39615,-1.79179 z m 0.74435,0.20815 c -0.31415,-0.30114 -0.52955,0.17777 -0.30403,0.67587 0.21375,0.47231 0.22937,0.47188 0.34852,-0.0108 0.0686,-0.2772 0.0487,-0.57698 -0.0446,-0.66619 z m 0.11842,-1.03511 c 0,-0.22743 -0.12929,-0.41349 -0.28756,-0.41349 -0.15805,0 -0.28757,0.18602 -0.28757,0.41349 0,0.22741 0.12952,0.41349 0.28757,0.41349 0.15827,0 0.28756,-0.18602 0.28756,-0.41349 z m 1.74487,2.10231 c -0.37044,-0.6635 -0.39546,-2.2308 -0.0442,-2.76272 0.41287,-0.62503 1.17488,-0.13371 1.17488,0.75743 0,0.57221 -0.16597,0.84506 -0.57631,0.94795 -0.38883,0.0975 -0.51823,0.28957 -0.39777,0.5905 0.14514,0.36276 0.25902,0.38203 0.60948,0.10332 0.35951,-0.28602 0.41353,-0.25669 0.32588,0.17689 -0.14877,0.73617 -0.72987,0.83556 -1.09207,0.18689 z m 0.84323,-2.10231 c 0,-0.22743 -0.11548,-0.41349 -0.25679,-0.41349 -0.1413,0 -0.3313,0.18602 -0.42235,0.41349 -0.10076,0.25187 -5.2e-4,0.41349 0.25682,0.41349 0.23228,0 0.42232,-0.18602 0.42232,-0.41349 z m 4.39573,0.82698 c 0.002,-1.06129 0.058,-1.5885 0.12363,-1.17155 0.14967,0.94718 0.65674,1.0004 0.65674,0.0688 0,-0.37904 0.12137,-0.68915 0.26959,-0.68915 0.14831,0 0.26959,0.8063 0.26959,1.79179 0,0.98548 -0.12137,1.79179 -0.26959,1.79179 -0.14832,0 -0.26959,-0.39695 -0.26959,-0.88211 0,-0.99657 -0.44944,-0.76972 -0.6554,0.33079 -0.0709,0.37903 -0.12726,-0.17928 -0.12499,-1.24047 z m 2.55624,0 c 0.0136,-1.91896 0.0159,-1.92254 0.27103,-0.64864 0.15647,0.77957 0.15104,1.53485 -0.0136,1.92961 -0.20696,0.4953 -0.26773,0.19253 -0.25709,-1.28097 z m 1.06941,1.58504 c -0.0159,-0.11373 -0.007,-0.54789 0.0227,-0.9648 0.0287,-0.41695 -0.0645,-0.75807 -0.20719,-0.75807 -0.14265,0 -0.20243,-0.37214 -0.13291,-0.82698 0.22774,-1.48741 0.63649,-0.86783 0.63649,0.96481 0,0.98547 -0.0648,1.79179 -0.14378,1.79179 -0.079,0 -0.1576,-0.0931 -0.17435,-0.20663 z m 1.54925,-1.58504 c 0.002,-1.06129 0.0593,-1.58639 0.12544,-1.16689 0.13202,0.83781 0.65627,0.76603 0.65627,-0.0899 0,-0.29428 0.12046,-0.53504 0.26748,-0.53504 0.16054,0 0.16847,0.33081 0.0204,0.82698 -0.1422,0.47505 -0.13564,1.20047 0.0159,1.7046 0.28061,0.93789 0.1191,1.48479 -0.17979,0.60903 -0.43762,-1.28201 -0.5142,-1.32347 -0.70943,-0.38401 -0.15148,0.72839 -0.19926,0.492 -0.19518,-0.96481 z m -21.91379,-3.76115 c 0.31157,-0.5581 0.27702,-1.28742 -0.16801,-3.54384 -0.14265,-0.72309 -0.11321,-0.86123 0.11707,-0.55132 0.16914,0.22741 0.3193,0.7236 0.33389,1.10264 0.0204,0.55395 0.10076,0.47284 0.40558,-0.41349 0.65372,-1.9014 0.51522,-0.33324 -0.29826,3.37684 -0.0747,0.34112 -0.26748,0.62023 -0.4282,0.62023 -0.18612,0 -0.17254,-0.21445 0.0378,-0.59106 z m 7.50057,-1.82096 c -0.0421,-2.33358 1.3e-4,-2.54986 0.49832,-2.54986 0.63668,0 0.89347,0.51499 0.89347,1.79179 0,1.22682 -0.25117,1.78786 -0.72276,1.61439 -0.26558,-0.0977 -0.42467,0.14651 -0.50533,0.77548 -0.0648,0.50493 -0.13835,-0.22939 -0.1637,-1.6318 z m 0.81666,-0.8959 c 0,-0.60645 -0.12951,-1.10264 -0.28757,-1.10264 -0.15804,0 -0.28756,0.49619 -0.28756,1.10264 0,0.60645 0.12952,1.10264 0.28756,1.10264 0.15806,0 0.28757,-0.49619 0.28757,-1.10264 z m -6.19008,1.54656 c 0.0831,-0.74133 0.15126,-1.7647 0.15126,-2.27419 0,-0.80432 0.0947,-0.92633 0.71891,-0.92633 0.62423,0 0.71892,0.12199 0.71892,0.92633 0,0.50949 0.0829,1.53286 0.18431,2.27419 0.10733,0.78472 0.0772,1.25189 -0.072,1.11814 -0.14083,-0.12633 -0.25618,-0.37273 -0.25618,-0.54754 0,-0.62076 -1.00401,-0.51551 -1.30281,0.13653 -0.23259,0.50753 -0.26218,0.36055 -0.14242,-0.70715 z m 1.01389,-1.59251 c 0,-1.36033 -0.1422,-1.3165 -0.37257,0.11482 -0.0922,0.57262 -0.0462,1.03373 0.10302,1.03373 0.14832,0 0.2695,-0.51687 0.2695,-1.14859 z m -8.03238,1.45911 c -0.37044,-0.66349 -0.39546,-2.2308 -0.0441,-2.76272 0.14378,-0.21777 0.46019,-0.30893 0.72896,-0.21011 0.37959,0.13957 0.45751,0.4889 0.38847,1.74126 -0.0908,1.64929 -0.54758,2.17327 -1.07335,1.23155 z m 0.84322,-1.41316 c 0,-0.60645 -0.12929,-1.10264 -0.28756,-1.10264 -0.15805,0 -0.28757,0.49619 -0.28757,1.10264 0,0.60645 0.12952,1.10264 0.28757,1.10264 0.15827,0 0.28756,-0.49619 0.28756,-1.10264 z m 1.74689,1.54094 c -0.19315,-0.22296 -0.30376,-0.97597 -0.25383,-1.72628 0.0731,-1.09821 0.18477,-1.33079 0.63973,-1.33079 0.30315,0 0.60801,0.16344 0.67753,0.36337 0.0802,0.23071 -0.0686,0.33134 -0.4074,0.27566 -0.43132,-0.071 -0.55115,0.11526 -0.62449,0.97033 -0.0824,0.96012 -0.0358,1.04132 0.50324,0.87731 0.67327,-0.2049 0.79235,0.18255 0.20084,0.65306 -0.29812,0.23717 -0.47598,0.21718 -0.73557,-0.0827 z m 7.32809,0.17495 c -0.0883,-0.0846 -0.16054,-0.51688 -0.16054,-0.96064 0,-0.57501 0.1653,-0.84826 0.57514,-0.95101 0.7781,-0.19513 0.73297,-0.90686 -0.0575,-0.90686 -0.4712,0 -0.54953,-0.0797 -0.30691,-0.31225 0.7061,-0.67687 1.22712,-0.0349 1.22712,1.51192 0,1.24596 -0.0924,1.51578 -0.55849,1.63264 -0.30716,0.0771 -0.63068,0.0708 -0.71892,-0.013 z m 0.98984,-1.043 c 0,-0.45483 -0.45449,-0.53169 -0.71892,-0.12155 -0.23451,0.36374 0.10937,0.87994 0.45123,0.67739 0.14719,-0.0873 0.26769,-0.33735 0.26769,-0.55581 z m 4.06657,0.65892 c -0.13767,-0.35345 -0.21397,-0.95274 -0.16959,-1.33179 0.0446,-0.37902 0.0917,-0.90622 0.10483,-1.17155 0.0292,-0.58972 1.17422,-0.66534 1.17422,-0.0775 0,0.2466 -0.16869,0.34282 -0.43135,0.24616 -0.34136,-0.12545 -0.43135,0.0836 -0.43135,1.00297 0,0.94315 0.0851,1.13034 0.45226,0.99526 0.31534,-0.1159 0.42414,-0.0276 0.35945,0.29225 -0.1465,0.72374 -0.78342,0.75038 -1.05863,0.0443 z m 7.16799,0.0814 c -0.37044,-0.66349 -0.39546,-2.2308 -0.0441,-2.76272 0.41287,-0.62503 1.17488,-0.1337 1.17488,0.75744 0,0.58446 -0.16462,0.84476 -0.60407,0.95491 -0.35722,0.0897 -0.52161,0.27933 -0.40226,0.46443 0.11095,0.17213 0.39223,0.24295 0.62495,0.15737 0.28435,-0.10462 0.39272,-0.004 0.33039,0.30292 -0.13813,0.68283 -0.73026,0.75175 -1.07981,0.12568 z m 0.84322,-2.1023 c 0,-0.22743 -0.11548,-0.41349 -0.25679,-0.41349 -0.14129,0 -0.33129,0.18601 -0.42234,0.41349 -0.10076,0.25187 -5.2e-4,0.41349 0.25682,0.41349 0.23227,0 0.42231,-0.18602 0.42231,-0.41349 z m 1.51496,0.82698 c 0.005,-1.06129 0.063,-1.5885 0.12884,-1.17156 0.0659,0.41692 0.29671,0.75807 0.51295,0.75807 0.21624,0 0.44706,-0.34115 0.51296,-0.75807 0.0659,-0.41694 0.12385,0.11027 0.12883,1.17156 0.007,1.22377 -0.0584,1.62711 -0.17548,1.10264 -0.10144,-0.45484 -0.31134,-0.82698 -0.4664,-0.82698 -0.15511,0 -0.36494,0.37214 -0.4664,0.82698 -0.11707,0.52447 -0.18114,0.12111 -0.17549,-1.10264 z m 2.58809,0 c 0.005,-1.06129 0.063,-1.5885 0.12884,-1.17156 0.0659,0.41692 0.29671,0.75807 0.51295,0.75807 0.21625,0 0.44707,-0.34115 0.51297,-0.75807 0.0659,-0.41694 0.12385,0.11027 0.12883,1.17156 0.007,1.22377 -0.0584,1.62711 -0.17548,1.10264 -0.10144,-0.45484 -0.31134,-0.82698 -0.4664,-0.82698 -0.15511,0 -0.36494,0.37214 -0.46641,0.82698 -0.11706,0.52447 -0.18114,0.12111 -0.17548,-1.10264 z m -29.40887,-0.13783 c 0,-1.47021 0.0639,-1.65396 0.57512,-1.65396 0.31633,0 0.57514,0.12393 0.57514,0.27566 0,0.15172 -0.12929,0.27566 -0.28757,0.27566 -0.15805,0 -0.28757,0.62023 -0.28757,1.3783 0,0.75806 -0.12951,1.3783 -0.28756,1.3783 -0.15986,0 -0.28756,-0.73511 -0.28756,-1.65396 z m 19.84206,0.43602 c 0,-0.66986 -0.0786,-1.41414 -0.17457,-1.65396 -0.12522,-0.31258 -0.002,-0.43602 0.43135,-0.43602 0.61994,0 0.81739,0.39347 0.33951,0.6766 -0.1465,0.0868 -0.23361,0.71435 -0.1936,1.39456 0.0401,0.6802 -0.0342,1.23676 -0.16507,1.23676 -0.13088,0 -0.2378,-0.54807 -0.2378,-1.21794 z m 2.01297,-0.41686 c 0,-1.45785 0.07,-1.67312 0.54436,-1.67312 0.65617,0 0.77844,0.30956 0.76216,1.92962 -0.0113,1.07218 -0.1003,1.2524 -0.6595,1.32855 -0.61003,0.0831 -0.64702,-0.007 -0.64702,-1.58505 z m 0.8627,0.66999 c 0,-0.22743 -0.12952,-0.41349 -0.28757,-0.41349 -0.15827,0 -0.28757,0.18601 -0.28757,0.41349 0,0.2274 0.1293,0.41349 0.28757,0.41349 0.15805,0 0.28757,-0.18602 0.28757,-0.41349 z m 0,-1.3783 c 0,-0.22743 -0.12952,-0.41349 -0.28757,-0.41349 -0.15827,0 -0.28757,0.18601 -0.28757,0.41349 0,0.2274 0.1293,0.41349 0.28757,0.41349 0.15805,0 0.28757,-0.18602 0.28757,-0.41349 z m 9.23548,0.62023 c 0.0181,-0.9476 0.0974,-1.47478 0.17593,-1.17155 0.0784,0.30322 0.32216,0.65051 0.54178,0.77176 0.21964,0.12133 0.39929,0.64843 0.39929,1.17155 0,0.76733 -0.11118,0.95112 -0.57513,0.95112 -0.51735,0 -0.57179,-0.17321 -0.54178,-1.72288 z m 0.82934,0.62024 c 0,-0.30323 -0.12952,-0.55132 -0.28756,-0.55132 -0.15828,0 -0.28757,0.24809 -0.28757,0.55132 0,0.30322 0.12929,0.55132 0.28757,0.55132 0.15804,0 0.28756,-0.2481 0.28756,-0.55132 z m 0.81635,-0.55182 c -0.0537,-0.90996 -3e-4,-1.65425 0.1182,-1.65396 0.11864,2.6e-4 0.21578,0.74478 0.21578,1.65446 0,2.13521 -0.20809,2.13491 -0.33391,-5.7e-4 z m 1.5251,5.4e-4 0.0233,-1.79179 0.26383,1.31943 c 0.1696,0.84802 0.16122,1.4882 -0.0233,1.79179 -0.21103,0.3471 -0.28103,-0.002 -0.26381,-1.31943 z m 0.91838,0.84636 c 0.0926,-0.44418 0.0548,-0.84734 -0.0842,-0.89589 -0.27837,-0.0972 -0.0555,-1.60582 0.23676,-1.60213 0.10008,0.001 0.21488,0.74556 0.25496,1.65396 0.0478,1.08373 -0.0387,1.65166 -0.25164,1.65166 -0.20537,0 -0.26261,-0.29635 -0.15601,-0.8076 z m -0.7616,-3.50533 c -0.10869,-0.10419 -0.19564,-0.385923 -0.19337,-0.625986 0.005,-0.382689 0.0392,-0.385533 0.28756,-0.02301 0.2517,0.367561 0.31685,0.367561 0.58621,0 0.25332,-0.345682 0.28869,-0.32682 0.21578,0.11504 -0.0931,0.563366 -0.56942,0.847166 -0.89614,0.533976 z m -30.10459,-1.200313 c 0,-0.454839 0.12929,-0.82698 0.28756,-0.82698 0.16915,0 0.28757,-0.964809 0.28757,-2.343109 v -2.34311 h 1.15026 1.15027 v 2.34311 c 0,1.3783 0.11842,2.343109 0.28757,2.343109 0.15804,0 0.28756,0.372141 0.28756,0.82698 0,0.454838 -0.12952,0.82698 -0.28756,0.82698 -0.15805,0 -0.28757,-0.248095 -0.28757,-0.55132 0,-0.459441 -0.19179,-0.55132 -1.15027,-0.55132 -0.95854,0 -1.15026,0.09181 -1.15026,0.55132 0,0.303225 -0.12952,0.55132 -0.28757,0.55132 -0.15827,0 -0.28756,-0.372142 -0.28756,-0.82698 z m 2.30053,-3.064427 c 0,-1.989353 -0.0487,-2.173112 -0.57514,-2.173112 -0.52953,0 -0.57513,0.183846 -0.57513,2.317302 0,2.181576 0.0337,2.308858 0.57513,2.173111 0.51378,-0.128713 0.57514,-0.376004 0.57514,-2.317301 z m -12.65292,0.169954 c 0,-1.562058 0.11593,-2.618769 0.28757,-2.618769 0.15804,0 0.28756,0.488873 0.28756,1.086382 0,1.560279 0.49684,1.634316 1.17053,0.174295 0.31997,-0.693426 0.70054,-1.260764 0.84567,-1.260764 0.14515,0 0.0113,0.565581 -0.29814,1.256857 -0.55871,1.249478 -0.55867,1.263196 0.0113,2.332127 0.61422,1.154082 0.71437,1.648555 0.33392,1.648555 -0.1311,0 -0.48694,-0.5195 -0.7908,-1.15443 -0.78232,-1.634728 -1.27139,-1.676663 -1.27139,-0.108961 0,0.69488 -0.12952,1.263434 -0.28757,1.263434 -0.17163,0 -0.28756,-1.056689 -0.28756,-2.618769 z m 3.45079,2.360214 c 0,-0.279698 0.79131,-3.698402 1.0443,-4.51175 0.31615,-1.016317 0.82061,-0.219161 1.41757,2.239986 0.48927,2.01553 0.53534,2.53032 0.22645,2.53032 -0.2133,0 -0.38779,-0.248094 -0.38779,-0.551321 0,-0.428792 -0.19178,-0.551319 -0.86269,-0.551319 -0.67099,0 -0.8627,0.122419 -0.8627,0.551319 0,0.303227 -0.12952,0.551321 -0.28757,0.551321 -0.15827,0 -0.28757,-0.116342 -0.28757,-0.258556 z m 1.8616,-2.566959 c -0.20288,-1.17685 -0.33509,-1.499416 -0.52754,-1.286398 -0.0571,0.06316 -0.18793,0.642049 -0.29096,1.286398 -0.16982,1.063309 -0.13133,1.171555 0.41661,1.171555 0.55034,0 0.58594,-0.103753 0.40189,-1.171555 z m 1.87677,0.206636 c 0,-1.562058 0.11593,-2.618769 0.28756,-2.618769 0.15805,0 0.28757,0.558223 0.28757,1.24047 0,1.139409 0.0586,1.24047 0.71892,1.24047 0.66033,0 0.71891,-0.101148 0.71891,-1.24047 0,-0.682247 0.12929,-1.24047 0.28757,-1.24047 0.17163,0 0.28756,1.056711 0.28756,2.618769 0,2.616143 -0.46218,3.677044 -0.63049,1.447215 -0.0736,-0.973904 -0.19767,-1.186401 -0.73544,-1.259635 -0.59001,-0.08031 -0.64703,0.02301 -0.64703,1.171554 0,0.692797 -0.12929,1.259636 -0.28757,1.259636 -0.17163,0 -0.28756,-1.056689 -0.28756,-2.61877 z m 7.18916,2.314003 c 0,-0.167567 0.18068,-1.004965 0.40132,-1.860705 0.22077,-0.855761 0.48431,-1.905873 0.58573,-2.33358 0.31893,-1.344873 0.83894,-0.65071 1.4748,1.968733 0.48928,2.01553 0.53536,2.530319 0.22646,2.530319 -0.2133,0 -0.38778,-0.248094 -0.38778,-0.55132 0,-0.428792 -0.19179,-0.55132 -0.86271,-0.55132 -0.67097,0 -0.8627,0.12242 -0.8627,0.55132 0,0.303226 -0.12928,0.55132 -0.28756,0.55132 -0.15805,0 -0.28756,-0.137179 -0.28756,-0.304767 z m 1.97892,-1.969428 c -0.0181,-0.341123 -0.1277,-0.992375 -0.24239,-1.447214 -0.23315,-0.925349 -0.42997,-0.643026 -0.72068,1.033725 -0.1585,0.913584 -0.11095,1.033724 0.40896,1.033724 0.42831,0 0.57891,-0.168652 0.55411,-0.620235 z m 1.75943,2.037779 c 0,-0.155412 0.12952,-0.359031 0.28757,-0.452734 0.15828,-0.09377 0.28757,-1.155406 0.28757,-2.359367 v -2.189022 l 1.07837,-5.42e-4 1.07837,-5.43e-4 -0.0917,2.619377 c -0.0505,1.44066 -0.17978,2.619572 -0.28756,2.619811 -0.10778,2.39e-4 -0.19586,-1.085188 -0.19586,-2.412024 0,-2.228678 -0.0439,-2.412437 -0.57514,-2.412437 -0.5182,0 -0.58935,0.229709 -0.71891,2.321274 -0.0933,1.508012 -0.26972,2.361125 -0.50324,2.434988 -0.19768,0.06251 -0.35946,-0.01302 -0.35946,-0.168651 z m 3.4508,0.06381 c 0,-0.869023 1.27437,-5.064915 1.5383,-5.064915 0.19631,0 0.59089,1.107372 0.93314,2.61877 0.32615,1.440333 0.47372,2.618769 0.32792,2.618769 -0.14583,0 -0.33279,-0.248095 -0.4155,-0.55132 -0.10665,-0.390504 -0.39225,-0.55132 -0.97957,-0.55132 -0.63744,0 -0.82916,0.127411 -0.82916,0.55132 0,0.303225 -0.12929,0.55132 -0.28756,0.55132 -0.15805,0 -0.28757,-0.07771 -0.28757,-0.172559 z m 1.97893,-2.101571 c -0.0181,-0.341124 -0.12771,-0.992375 -0.24237,-1.447214 -0.23318,-0.925371 -0.42999,-0.643048 -0.7207,1.033725 -0.15851,0.913584 -0.11095,1.033724 0.40895,1.033724 0.42832,0 0.57892,-0.168652 0.55412,-0.620235 z m 1.75943,-0.344574 c 0,-1.562081 0.11593,-2.61877 0.28757,-2.61877 0.15805,0 0.28757,0.568554 0.28757,1.263434 0,1.579531 0.54019,1.526505 1.14138,-0.112 0.23239,-0.63328 0.58365,-1.151412 0.78059,-1.151412 0.25664,0 0.20085,0.351477 -0.19653,1.240469 -0.54887,1.227446 -0.54878,1.253732 0.0113,2.503795 0.63864,1.428201 0.65323,1.493275 0.33463,1.493275 -0.12657,0 -0.51317,-0.558201 -0.85895,-1.24047 -0.34579,-0.682248 -0.75979,-1.24047 -0.91999,-1.24047 -0.16032,0 -0.29133,0.558222 -0.29133,1.24047 0,0.682269 -0.12929,1.24047 -0.28756,1.24047 -0.17164,0 -0.28757,-1.05669 -0.28757,-2.61877 z m 3.4508,0 c 0,-3.269132 0.52171,-3.493958 0.63584,-0.273989 0.0469,1.326315 0.20786,2.34478 0.37064,2.34478 0.16258,0 0.32366,-1.018465 0.37064,-2.34478 0.0457,-1.289633 0.20243,-2.344781 0.34827,-2.344781 0.14582,0 0.30256,1.055148 0.34827,2.344781 0.11073,3.125072 0.63433,3.172563 0.74129,0.06729 0.11276,-3.270564 0.63584,-3.100458 0.63584,0.206636 v 2.618769 h -1.7254 -1.72539 z m 4.67093,2.299828 c -0.38848,-0.372401 -0.49916,-4.018709 -0.13744,-4.525208 0.58711,-0.821922 2.36803,-0.38041 2.36803,0.587048 0,0.604845 -0.48703,0.474894 -0.665,-0.177334 -0.10167,-0.37238 -0.34162,-0.541487 -0.68056,-0.47941 -0.44272,0.08096 -0.5365,0.420306 -0.60697,2.195534 -0.0663,1.671497 0.005,2.132305 0.35158,2.259673 0.25742,0.09464 0.61152,-0.08161 0.86754,-0.43207 0.49967,-0.68381 1.01038,-0.420501 0.55046,0.2838 -0.3795,0.5811 -1.56765,0.748254 -2.04771,0.288076 z m 3.09336,-2.299828 c 0,-1.440313 0.11367,-2.61877 0.25245,-2.61877 0.1388,0 0.23589,0.527205 0.21556,1.171555 -0.0265,0.843563 0.0772,1.171555 0.37062,1.171555 0.22417,0 0.59071,-0.527206 0.81476,-1.171555 0.22417,-0.64435 0.526,-1.171555 0.67098,-1.171555 0.35133,0 0.33929,0.08313 -0.1988,1.372157 -0.25428,0.60923 -0.39544,1.262979 -0.31368,1.452793 0.0817,0.189923 0.35627,0.81031 0.60998,1.378864 0.28659,0.642179 0.34481,1.033725 0.15375,1.033725 -0.16914,0 -0.56857,-0.565537 -0.88752,-1.256749 -0.70048,-1.517975 -1.26336,-1.46879 -1.23963,0.10831 0.009,0.631631 -0.0876,1.148395 -0.21579,1.148395 -0.12816,0 -0.23295,-1.178435 -0.23295,-2.618769 z m 3.45079,0 c 0,-1.744234 0.1071,-2.61877 0.32108,-2.61877 0.21556,0 0.28197,0.588284 0.20198,1.791789 -0.0654,0.985496 -0.0415,1.79179 0.0534,1.79179 0.0949,0 0.40025,-0.607103 0.67859,-1.349127 0.27835,-0.742025 0.68803,-1.579336 0.91037,-1.860705 0.35633,-0.45091 0.40535,-0.192745 0.41341,2.176108 0.005,1.478231 -0.0879,2.687944 -0.2065,2.68827 -0.11865,2.82e-4 -0.17231,-0.805991 -0.11933,-1.79179 0.053,-0.985799 -0.0113,-1.791572 -0.14378,-1.790596 -0.13224,0.0011 -0.55664,0.807272 -0.94338,1.79179 -0.38672,0.984497 -0.80729,1.79001 -0.93459,1.79001 -0.12725,0 -0.23143,-1.178436 -0.23143,-2.618769 z m 3.59458,0 c 0,-1.440313 0.0971,-2.61877 0.21579,-2.61877 0.11865,0 0.21556,0.831126 0.21556,1.846922 0,2.075393 0.19383,2.030853 1.13883,-0.261877 0.35935,-0.87178 0.76773,-1.585045 0.90753,-1.585045 0.13971,0 0.25417,1.178457 0.25417,2.61877 0,2.993862 -0.50417,3.596797 -0.63389,0.758064 l -0.0851,-1.860704 -0.75587,1.780632 c -0.41574,0.979353 -0.86865,1.816664 -1.00648,1.860705 -0.13789,0.04406 -0.25061,-1.098364 -0.25061,-2.538697 z m 0.79081,-3.352655 c -0.19768,-0.0764 -0.35946,-0.315815 -0.35946,-0.531893 0,-0.325648 0.10484,-0.333505 0.6127,-0.04601 0.4895,0.277136 0.63889,0.277613 0.74289,0.0022 0.0715,-0.189489 0.25334,-0.344575 0.40389,-0.344575 0.16189,0 0.14786,0.22526 -0.0342,0.55132 -0.30369,0.543962 -0.66254,0.640833 -1.36594,0.368755 z m -33.42958,-1.463055 c 0,-0.380519 4.70653,-2.146176 8.83616,-3.314932 4.39709,-1.244421 7.57074,-1.517585 9.94701,-0.856152 1.66055,0.462197 3.83462,2.288999 4.11702,3.45936 l 0.19609,0.812762 -0.98008,-0.622231 c -2.40777,-1.528588 -3.41077,-1.803663 -6.44384,-1.767262 -2.6318,0.03169 -11.88568,1.446238 -14.73777,2.252944 -0.51402,0.145427 -0.93459,0.161272 -0.93459,0.0356 z m -5.75132,-0.702087 c 4.15091,-2.370894 17.37771,-9.241078 18.83558,-9.783459 0.94897,-0.353053 1.76013,-0.664679 1.80259,-0.69251 0.0423,-0.02783 -0.18228,-0.844284 -0.49953,-1.814342 -0.66452,-2.032249 -0.73671,-3.000488 -0.22462,-3.012977 0.20243,-0.005 0.11571,-0.185517 -0.1988,-0.413491 -0.48676,-0.352916 -0.49595,-0.404722 -0.0718,-0.404722 0.26746,0 0.4863,-0.124047 0.4863,-0.27566 0,-0.151614 -0.19404,-0.27566 -0.43134,-0.27566 -0.46652,0 -0.46652,-0.560502 0,-0.895895 0.18839,-0.135464 0.17774,-0.278022 -0.0312,-0.41349 -0.17526,-0.113715 -0.28723,-0.401556 -0.24871,-0.639661 0.0385,-0.238103 -0.0922,-0.802744 -0.29044,-1.254756 -0.29652,-0.676003 -0.67339,-0.912654 -2.12374,-1.333604 -1.43056,-0.415209 -1.76239,-0.620545 -1.75884,-1.088353 0.005,-0.709603 0.29151,-1.107363 0.85831,-1.19334 0.23722,-0.03599 1.14154,-0.284085 2.00956,-0.551321 1.57437,-0.484709 2.22339,-1.262965 1.44021,-1.726967 -0.54601,-0.323478 2.64455,-0.603264 4.53782,-0.397932 1.05016,0.113889 1.784,0.07901 1.89296,-0.08999 0.28095,-0.435766 -0.42399,-0.817056 -1.8287,-0.98912 -0.71174,-0.08717 -1.96226,-0.255547 -2.77898,-0.374153 l -1.48493,-0.215644 0.36338,-1.007806 c 0.4273,-1.185084 3.00355,-5.470202 3.28874,-5.470202 0.47718,0 1.55863,0.965699 2.23982,2.00009 0.70671,1.073175 0.72682,1.209748 0.43045,2.924238 -0.34746,2.010058 -0.24518,2.254347 1.18617,2.833406 l 0.92506,0.374233 -1.0879,0.13783 c -1.40102,0.177508 -1.45862,0.51973 -0.20606,1.22502 0.84173,0.473996 1.50074,0.567256 4.02594,0.569739 2.57906,0.0026 3.19769,0.09381 4.2416,0.625837 0.67218,0.342578 1.22216,0.659331 1.22216,0.703896 0,0.04456 -1.24372,0.112804 -2.76384,0.151657 -2.55673,0.06533 -4.24629,0.253393 -6.67344,0.742765 -1.50925,0.304298 -1.81787,1.048762 -1.94469,4.690841 -0.0976,2.802802 -0.20424,3.371195 -0.83521,4.453428 -0.39782,0.682312 -0.72297,1.317979 -0.72254,1.412592 2.7e-4,0.09461 1.068,0.183932 2.37242,0.198497 5.64398,0.06299 9.43233,3.271981 10.70793,9.070308 0.68758,3.125399 0.91315,2.894431 -2.827,2.894431 h -3.26148 l -0.32871,-1.033725 c -0.48067,-1.511574 -2.29861,-3.650933 -3.9162,-4.608602 -1.35883,-0.804449 -1.53056,-0.834729 -4.59585,-0.810028 -3.68296,0.02974 -5.35349,0.46554 -12.20513,3.184567 -4.9573,1.967302 -7.81295,2.907324 -9.53928,3.140225 l -1.28195,0.172993 z m -1.26435,-4.56022 c -0.41124,-0.468492 -1.1919,-1.741867 -1.73479,-2.829712 -3.88296,-7.780651 -2.65752,-17.073742 3.0612,-23.214603 3.62963,-3.897538 7.45225,-6.41219 11.36942,-7.4792 1.08872,-0.296556 1.966,-0.709961 2.13113,-1.004253 0.22258,-0.396833 0.36546,-0.432745 0.69098,-0.173775 0.26621,0.211781 1.44585,0.310823 3.35884,0.281998 6.60671,-0.09954 11.67243,1.862085 16.32038,6.319856 4.60487,4.416434 7.26019,10.684194 7.14754,16.871364 l -0.0417,2.285815 -0.22258,-2.894429 c -0.7455,-9.697716 -7.24326,-18.190833 -15.94169,-20.83718 -2.43292,-0.740178 -6.27388,-1.140052 -7.98861,-0.831683 l -1.0262,0.184541 0.69369,1.162976 c 0.76685,1.285615 0.93758,1.983655 0.2805,1.14675 -0.4124,-0.525237 -0.44539,-0.521894 -1.79172,0.181415 -1.07686,0.562539 -1.62092,1.122489 -2.53192,2.605834 -0.71955,1.171586 -1.52892,2.095686 -2.13057,2.432517 l -0.97023,0.543184 0.19382,-1.35723 c 0.10665,-0.746476 0.68221,-2.318592 1.27906,-3.493594 0.59683,-1.174999 1.06106,-2.136364 1.0316,-2.136364 -0.0294,0 -0.5546,0.199104 -1.16702,0.44246 -2.14203,0.851166 -4.98699,2.909749 -7.31044,5.289759 -2.71698,2.783117 -4.48225,5.908072 -5.48524,9.710211 -1.64878,6.250084 0.80754,13.543814 5.04732,14.987358 0.71337,0.242885 0.35261,0.583769 -1.891,1.786819 l -1.62426,0.870977 z m 14.49966,-30.734035 c 0.84896,-1.681085 0.54076,-1.86411 -0.40567,-0.240905 -0.84049,1.441528 -0.85824,1.495764 -0.48995,1.495764 0.14401,0 0.54708,-0.564686 0.89562,-1.254859 z m 25.18526,30.888296 c 0.11774,-0.303226 0.57223,-1.543696 1.01008,-2.756595 0.43785,-1.212903 0.80342,-2.063286 0.81236,-1.889742 0.0274,0.532705 -1.11722,3.778117 -1.59017,4.508507 -0.28211,0.435651 -0.36754,0.486355 -0.23227,0.13783 z m 1.8841,-5.926684 c 0,-0.379032 0.0652,-0.53409 0.14514,-0.344575 0.0797,0.189511 0.0797,0.499633 0,0.68915 -0.0797,0.189511 -0.14514,0.03447 -0.14514,-0.344575 z M 375.8102,46.240886 c -0.0969,-0.416936 -0.48748,-1.916555 -0.86818,-3.332487 -0.77742,-2.891519 -0.84789,-3.627926 -0.34709,-3.627926 0.26839,0 0.26839,-0.07352 0,-0.330792 -0.47809,-0.458296 -0.43171,-0.709718 0.15805,-0.857489 0.45408,-0.113758 0.45106,-0.129191 -0.0308,-0.158037 -0.33929,-0.0204 -0.47626,-0.17625 -0.37561,-0.427657 0.0872,-0.217624 0.005,-0.455925 -0.18499,-0.529559 -0.18884,-0.07363 -0.0845,-0.147619 0.23182,-0.164397 0.56757,-0.03013 0.5678,-0.03586 0.0159,-0.435252 -0.40026,-0.290196 -0.44095,-0.405917 -0.14379,-0.408945 0.29898,-0.003 0.31873,-0.06253 0.0709,-0.21356 -0.18884,-0.115148 -0.30416,-0.45437 -0.25607,-0.753843 0.16847,-1.049793 -0.30479,-1.558675 -2.14724,-2.308268 -3.64348,-1.482334 -4.02873,-1.704342 -3.62652,-2.089897 0.44901,-0.430405 3.92904,-0.862859 3.92904,-0.488248 0,0.143321 0.29116,0.388911 0.64702,0.545735 0.60701,0.267499 0.57987,0.297656 -0.43884,0.487638 -0.8817,0.164441 -1.02376,0.274221 -0.7556,0.583972 0.38237,0.441635 1.58055,0.51048 1.84147,0.105814 0.0978,-0.151613 0.70777,-0.27566 1.35559,-0.27566 1.12286,0 1.15565,0.02353 0.70193,0.50411 -0.56668,0.600253 -0.61048,1.063581 -0.11638,1.231883 0.19767,0.06735 0.005,0.07955 -0.43135,0.02711 -1.25594,-0.151439 -0.91824,0.307453 0.54732,0.743744 1.48138,0.440993 1.5597,0.538637 2.2362,2.787742 0.30081,1.000116 0.74526,1.778326 1.22008,2.136365 0.91588,0.690608 1.3336,0.720503 1.12877,0.08079 -0.0849,-0.265321 -0.0442,-1.102639 0.0906,-1.860704 0.23348,-1.313138 0.24665,-1.267523 0.27867,0.96481 0.0335,2.330281 0.026,2.355184 -1.34434,4.548388 -1.9281,3.085716 -2.75744,4.265356 -3.00153,4.269317 -0.11571,0.0019 -0.28941,-0.337716 -0.3862,-0.754653 z m 30.11734,-0.620234 c 0,-0.379033 0.0652,-0.534093 0.14514,-0.344576 0.0797,0.189511 0.0797,0.499635 0,0.68915 -0.0797,0.189511 -0.14514,0.03445 -0.14514,-0.344574 z M 380.8681,33.293521 c -0.002,-0.201926 -0.20491,-0.266554 -0.50747,-0.162009 -0.30138,0.104143 -0.16598,-0.133099 0.33776,-0.591403 l 0.84101,-0.765311 -0.69722,-0.549125 c -0.67187,-0.529157 -0.65841,-0.528581 0.37001,0.01584 0.72259,0.382516 1.41908,0.528505 2.15674,0.452071 0.90892,-0.09418 0.85134,-0.05489 -0.34743,0.236961 -1.02127,0.248648 -1.53995,0.544971 -1.79303,1.024381 -0.19586,0.370992 -0.35803,0.523367 -0.36037,0.338608 z m 0.50152,-4.825489 c -0.065,-0.186602 -0.87875,-0.414862 -1.82126,-0.510791 l -1.70394,-0.173428 1.62998,-0.04052 c 1.86953,-0.0465 2.53974,0.132468 2.53974,0.678115 0,0.473564 -0.48388,0.508575 -0.64452,0.04662 z"
           id="path922" />
        <rect
           style="opacity:0.998;fill:#ffffff;stroke:none;stroke-width:0.50778;stroke-miterlimit:4;stroke-dasharray:none;stroke-opacity:0.988189"
           id="rect924"
           width="49.689423"
           height="21.3123"
           x="357.67752"
           y="58.245365" />
      </g>
      <text
         xml:space="preserve"
         style="font-style:normal;font-variant:normal;font-weight:bold;font-stretch:normal;font-size:16.8272px;line-height:1.25;font-family:'Comic Sans MS';-inkscape-font-specification:'Comic Sans MS, Bold';font-variant-ligatures:normal;font-variant-caps:normal;font-variant-numeric:normal;font-variant-east-asian:normal;stroke-width:0.197193"
         x="109.34421"
         y="116.45589"
         id="text896"
         transform="scale(1.0156125,0.98462751)"><tspan
           sodipodi:role="line"
           id="tspan900"
           x="109.34422"
           y="116.45589"
           style="font-style:normal;font-variant:normal;font-weight:bold;font-stretch:normal;font-size:16.9333px;font-family:'Comic Sans MS';-inkscape-font-specification:'Comic Sans MS, Bold';font-variant-ligatures:normal;font-variant-caps:normal;font-variant-numeric:normal;font-variant-east-asian:normal;text-align:center;text-anchor:middle;stroke-width:0.197193"
           dy="1.2584747 -9.3291188e-09 0 0 0 0 0 0 0 0 0 0 0"
           dx="0.56285024 2.8142512 2.8142512 2.8142512 2.8142512 2.8142512 2.8142512 0 0 0 2.8142512 2.8142512 2.8142512">научная  база</tspan><tspan
           sodipodi:role="line"
           id="tspan902"
           x="109.34421"
           y="155.80612"
           style="font-style:normal;font-variant:normal;font-weight:bold;font-stretch:normal;font-size:37.8612px;font-family:'Comic Sans MS';-inkscape-font-specification:'Comic Sans MS, Bold';font-variant-ligatures:normal;font-variant-caps:normal;font-variant-numeric:normal;font-variant-east-asian:normal;text-align:center;text-anchor:middle;stroke-width:0.197193">РЯЖКОВ</tspan></text>
      <path
         style="fill:#000000;stroke-width:0.119359"
         d="m 107.57104,220.56128 c 0.0324,-0.17758 0.17628,-0.21559 0.85527,-0.22605 l 0.81632,-0.0129 -0.75914,0.0737 c -0.51662,0.0501 -0.74979,0.12221 -0.72991,0.22605 0.0161,0.084 -0.0272,0.1525 -0.0963,0.1525 -0.0689,0 -0.10776,-0.0961 -0.0863,-0.2135 z m 2.05336,0.12505 c 0.20999,-0.0271 0.3514,-0.10079 0.31428,-0.16346 -0.0372,-0.0628 -0.0129,-0.11407 0.056,-0.11407 0.068,0 0.12376,0.0823 0.12376,0.18296 0,0.1336 -0.11821,0.17771 -0.43796,0.16345 -0.43433,-0.0194 -0.4348,-0.0199 -0.056,-0.0689 z m 7.61817,-0.48845 c 0.0964,-0.0383 0.20809,-0.12234 0.24834,-0.18664 0.10776,-0.17246 1.20968,-0.28468 1.108,-0.11292 -0.0973,0.16447 -0.83799,0.39041 -1.23954,0.37811 -0.18111,-0.006 -0.22547,-0.0355 -0.11678,-0.0786 z m -17.751732,-1.74089 c 0,-0.0671 0.17081,-0.1182 0.37955,-0.11343 0.318082,0.008 0.341732,0.0257 0.145992,0.11343 -0.322652,0.14482 -0.525542,0.14482 -0.525542,0 z m 1.635032,-0.24832 c 0.41752,-0.0492 0.99561,-0.0881 1.28467,-0.0872 l 0.52554,9e-4 -0.58394,0.095 c -0.32117,0.0523 -0.89926,0.0915 -1.28466,0.0872 l -0.70072,-0.009 0.75911,-0.0892 z m 2.16058,-0.23963 c 0.19269,-0.0512 0.50802,-0.0933 0.70072,-0.0933 h 0.35037 l -0.35037,0.0933 c -0.1927,0.0512 -0.50803,0.0933 -0.70072,0.0933 h -0.35037 z m -9.051061,-0.32865 c 0,-0.12414 2.029299,-0.48974 3.211659,-0.5787 0.44964,-0.0338 1.02773,-0.0888 1.28467,-0.12182 0.42856,-0.0555 0.41891,-0.0464 -0.11679,0.10685 -0.32117,0.0919 -0.91797,0.17242 -1.32621,0.17884 -0.40824,0.006 -1.03889,0.0894 -1.40145,0.18438 -0.979123,0.25646 -1.651887,0.35038 -1.651887,0.23063 z m 10.072941,-0.12814 c -0.98302,-0.0365 -1.31925,-0.1511 -0.9343,-0.31806 0.10027,-0.0435 0.0596,-0.1422 -0.12937,-0.31484 -0.24895,-0.22739 -0.37215,-0.24413 -1.28467,-0.17454 -1.3802,0.10531 -1.60905,0.28004 -0.37282,0.28469 1.48503,0.006 1.03164,0.24889 -0.74989,0.40239 -1.321332,0.11382 -1.497272,0.10607 -1.670272,-0.0747 -0.11253,-0.11756 -0.13696,-0.20199 -0.0585,-0.20199 0.0742,0 0.1674,0.055 0.20711,0.12195 0.0397,0.0671 0.19736,0.12195 0.35036,0.12195 0.153,0 0.31066,-0.055 0.350352,-0.12195 0.0422,-0.0711 -0.0767,-0.12195 -0.285062,-0.12195 -0.19651,0 -0.35726,-0.0425 -0.35726,-0.0942 0,-0.16881 1.195622,-0.37829 2.639642,-0.46248 1.37402,-0.08 1.41517,-0.0752 1.47811,0.17616 0.0356,0.14221 0.14849,0.25857 0.25085,0.25857 0.10234,0 0.18612,0.073 0.18612,0.16253 0,0.1222 0.1578,0.14884 0.63668,0.10749 0.48322,-0.0417 0.68228,-0.008 0.82586,0.14243 0.10401,0.10866 0.14599,0.18622 0.0932,0.17228 -0.0526,-0.0139 -0.58205,-0.0435 -1.17621,-0.0656 z m -3.56203,-0.35916 c -0.1124,-0.0309 -0.29634,-0.0309 -0.40874,0 -0.1124,0.0307 -0.0204,0.0559 0.20437,0.0559 0.22483,0 0.3168,-0.0252 0.20437,-0.0559 z m 17.19701,-0.0286 c 0.15573,-0.11318 0.15573,-0.12913 0,-0.14363 -0.0964,-0.009 -0.21459,-0.0103 -0.26278,-9.1e-4 -0.13974,0.0232 -0.1013,-0.18772 0.0594,-0.32723 0.14426,-0.12505 2.41562,-0.52411 2.8459,-0.49999 0.20985,0.0116 -0.56142,0.24859 -0.8617,0.26459 -0.0804,0.005 -0.14597,0.056 -0.14597,0.11498 0,0.0589 0.17079,0.0798 0.37954,0.0459 0.20877,-0.0334 0.64234,-0.0964 0.9635,-0.1394 0.7648,-0.10246 0.91558,-0.21759 0.40876,-0.31211 l -0.40876,-0.0761 0.38206,-0.0161 c 0.30211,-0.0129 0.40992,0.0478 0.51511,0.2889 0.0732,0.16775 0.17715,0.30499 0.23107,0.30499 0.0539,0 0.0979,0.0671 0.0979,0.1491 0,0.0844 -0.10427,0.0403 -0.24026,-0.10182 -0.22899,-0.23916 -0.27964,-0.24339 -1.08029,-0.0899 -0.46201,0.0885 -1.10281,0.24086 -1.42398,0.3385 -0.8109,0.24647 -1.68855,0.36748 -1.45984,0.20125 z M 95.572158,216.7388 c -0.0991,-0.16746 0.0416,-0.30561 0.41505,-0.40768 l 0.29197,-0.0798 -0.29197,0.18376 -0.29197,0.18373 0.29197,0.0129 c 0.26845,0.0116 0.27316,0.0213 0.0584,0.11782 -0.32048,0.14383 -0.38286,0.14244 -0.47344,-0.0103 z m 26.925872,-0.11137 c 0,-0.13418 0.0478,-0.24397 0.10582,-0.24397 0.0582,0 0.0786,0.10982 0.0445,0.24397 -0.0337,0.1342 -0.0813,0.24397 -0.10582,0.24397 -0.0246,0 -0.0445,-0.10982 -0.0445,-0.24397 z m -25.985282,9.1e-4 c -0.16348,-0.0743 0.009,-0.10879 0.57422,-0.11485 0.44427,-0.005 0.78587,0.0116 0.75911,0.0368 -0.12286,0.11447 -1.12439,0.17311 -1.33333,0.0781 z m 2.30656,-0.0897 c -0.20876,-0.027 -0.37956,-0.0899 -0.37956,-0.13994 0,-0.12991 0.63692,-0.0661 0.89321,0.0894 0.22985,0.13951 0.19775,0.14268 -0.51365,0.0506 z m -0.75181,-0.11705 c 0.0843,-0.0352 0.18503,-0.0307 0.22383,0.0103 0.0388,0.0404 -0.0302,0.0694 -0.15328,0.064 -0.13606,-0.006 -0.16372,-0.0347 -0.0706,-0.0738 z m -3.364951,-0.15901 c 0,-0.10117 0.284412,-0.24561 0.483592,-0.24561 0.06279,0 0.08557,0.0481 0.05069,0.10723 -0.08565,0.14474 -0.534251,0.2609 -0.534251,0.13836 z m 21.810113,0.0364 c -0.1124,-0.0308 -0.20438,-0.0979 -0.20438,-0.14952 0,-0.21887 1.98224,-0.63623 2.85754,-0.60165 0.49753,0.0195 0.53629,0.0403 0.34718,0.18472 -0.24503,0.18717 -0.48167,0.21112 -0.53808,0.0545 -0.0379,-0.10569 -2.0461,0.15114 -2.16666,0.27709 -0.0332,0.0347 0.0903,0.0981 0.27455,0.14069 0.18422,0.0427 0.38751,0.0959 0.45173,0.11833 0.17875,0.0621 -0.78904,0.0395 -1.02188,-0.0241 z m 1.32358,-0.0817 c 0.12182,-0.10944 0.92375,-0.17552 0.86191,-0.0711 -0.0374,0.0631 -0.25751,0.11472 -0.48923,0.11472 -0.23173,0 -0.39943,-0.0196 -0.37268,-0.0436 z m -21.498672,-0.19636 c 0.35329,-0.057 0.99234,-0.14335 1.42011,-0.19209 0.42778,-0.0488 0.84822,-0.13608 0.9343,-0.19411 0.28036,-0.18894 -0.13353,-0.33821 -0.73243,-0.26411 -0.64559,0.0799 -1.19895,-0.0341 -1.08673,-0.22373 0.0538,-0.0908 -0.2143,-0.11756 -0.87113,-0.0868 -0.521826,0.0244 -0.948778,0.001 -0.948778,-0.0481 0,-0.051 0.302191,-0.0933 0.671528,-0.0941 0.36934,-7.1e-4 0.86966,-0.0355 1.11182,-0.0772 0.36121,-0.0623 0.42824,-0.0431 0.37316,0.10685 -0.0796,0.21658 0.41124,0.35349 0.907,0.253 0.52751,-0.10698 0.90727,0.0499 0.90727,0.37477 0,0.30766 0.0346,0.30104 -2.56932,0.49323 l -0.75913,0.056 z m 3.48737,-0.36962 c -0.26598,-0.2353 -0.26804,-0.25009 -0.0583,-0.41988 0.403162,-0.32631 2.223502,-0.40051 2.675002,-0.10905 0.13612,0.0879 -0.18051,0.26227 -0.49829,0.27446 -0.15331,0.006 -0.15372,-0.008 -0.003,-0.10698 0.29651,-0.19587 -0.16756,-0.29008 -1.01954,-0.20699 -0.82634,0.0807 -1.101652,0.22778 -0.87294,0.4667 0.10401,0.10853 0.28623,0.10491 0.76691,-0.0156 0.34682,-0.0868 0.70326,-0.12788 0.79211,-0.0911 0.0888,0.0368 0.0302,0.0716 -0.13041,0.0772 -0.16059,0.006 -0.44251,0.0923 -0.62649,0.1926 -0.44869,0.24443 -0.69558,0.22958 -1.024792,-0.0618 z m -10.067572,-0.90793 c -0.170647,-0.16519 -0.310267,-0.33234 -0.310267,-0.37146 0,-0.10956 0.40926,0.1446 0.580983,0.36071 0.256416,0.3227 0.05963,0.33053 -0.270716,0.0116 z m 7.280942,-0.37301 c -0.12389,-0.15587 -0.0924,-0.18297 0.21264,-0.18297 0.21808,0 0.41818,-0.0897 0.51188,-0.22941 0.0846,-0.12621 0.25838,-0.26168 0.38617,-0.30115 0.2781,-0.0858 -0.38293,0.006 -1.55401,0.21487 -0.46864,0.0836 -0.87927,0.1062 -0.91252,0.0502 -0.0815,-0.1378 0.0984,-0.19205 1.09164,-0.32923 0.92644,-0.12801 1.3197,-0.36537 0.97632,-0.58936 -0.12892,-0.0841 -0.41578,-0.093 -0.82331,-0.0258 -0.63946,0.10556 -0.87907,0.0613 -0.75974,-0.14036 0.0369,-0.0625 0.30189,-0.11356 0.58874,-0.11356 0.44728,0 0.53717,-0.043 0.6313,-0.30155 0.0621,-0.17068 0.24049,-0.33584 0.41095,-0.38052 0.40894,-0.10711 0.29818,-0.3551 -0.15803,-0.35366 -0.32414,7.3e-4 -0.37704,-0.047 -0.44021,-0.39858 -0.0395,-0.21988 -0.19003,-0.49694 -0.33454,-0.61564 -0.1445,-0.11872 -0.34523,-0.38252 -0.44607,-0.58618 -0.10078,-0.20369 -0.25862,-0.4356 -0.35065,-0.51538 -0.13914,-0.12053 -0.17735,-0.067 -0.22684,0.31839 -0.067,0.52199 -0.791193,1.7845 -1.133271,1.97574 -0.314235,0.17564 -0.473368,0.15633 -0.473368,-0.0576 0,-0.10078 -0.05257,-0.18299 -0.116788,-0.18299 -0.06423,0 -0.116788,-0.055 -0.116788,-0.12195 0,-0.0671 0.154128,-0.12195 0.342498,-0.12195 0.240227,0 0.364683,-0.0732 0.416823,-0.24462 0.04087,-0.13454 0.210197,-0.41329 0.376251,-0.61943 0.204345,-0.25366 0.319619,-0.56722 0.356691,-0.97024 0.04633,-0.50335 0.01045,-0.65067 -0.232602,-0.95223 -0.319817,-0.39699 -0.624406,-1.37285 -0.518484,-1.66116 0.03769,-0.10259 0.280507,-0.27514 0.539589,-0.38341 0.459969,-0.19224 0.598949,-0.46679 0.367229,-0.72543 -0.0571,-0.0639 -0.15071,-0.41782 -0.208025,-0.78681 -0.179612,-1.15639 0.168245,-2.1874 1.013655,-3.00443 0.43644,-0.4218 0.61918,-0.89918 0.34418,-0.89918 -0.0671,0 -0.26411,-0.13922 -0.43795,-0.30937 -0.19327,-0.18917 -0.4028,-0.2864 -0.53933,-0.25022 -0.624021,0.16526 -0.931563,-0.67755 -0.333855,-0.91492 0.397755,-0.15795 0.507555,-0.33707 0.422815,-0.68976 -0.0482,-0.20047 -0.0151,-0.2755 0.12164,-0.2755 0.10331,0 0.18785,-0.0586 0.18785,-0.13018 0,-0.0747 0.0996,-0.0972 0.23358,-0.0528 0.18215,0.0604 0.23357,0.0219 0.23357,-0.17476 0,-0.14287 0.076,-0.25221 0.17517,-0.25221 0.0964,0 0.17518,0.055 0.17518,0.12195 0,0.0671 0.0789,0.12195 0.17518,0.12195 0.0964,0 0.17519,-0.055 0.17519,-0.12195 0,-0.0671 0.0788,-0.12195 0.17518,-0.12195 0.0964,0 0.17518,0.0823 0.17518,0.18299 0,0.21777 0.0559,0.22557 0.3676,0.0512 0.20727,-0.11588 0.23155,-0.0974 0.20272,0.15247 -0.0421,0.36502 0.24384,0.83308 0.50886,0.83308 0.11305,0 0.20549,-0.0139 0.20549,-0.0311 0,-0.0169 -0.1075,-0.41497 -0.23879,-0.88442 -0.13133,-0.46943 -0.26335,-1.04563 -0.29335,-1.28047 -0.0476,-0.37262 -0.26965,-1.35122 -0.63663,-2.80572 -0.13897,-0.55079 -0.98672,-2.71006 -1.20703,-3.0744 -0.0932,-0.15415 -0.38826,-0.9664 -0.65566,-1.80509 -0.517287,-1.62244 -1.315675,-3.41832 -1.916648,-4.31133 -0.494582,-0.73493 -3.577537,-4.17453 -3.7074,-4.13629 -0.05694,0.0168 -0.103574,-0.0511 -0.103574,-0.15095 0,-0.24012 -0.855946,-0.79653 -1.355591,-0.88121 -0.217925,-0.037 -0.395747,-0.12854 -0.395155,-0.20369 4.46e-4,-0.0751 3.42349,-1.34339 7.606448,-2.81844 4.182952,-1.47507 7.669542,-2.73762 7.747952,-2.80572 0.11214,-0.0974 0.10581,-0.72341 -0.029,-2.9295 -0.0945,-1.54314 -0.19397,-4.44044 -0.22115,-6.43839 -0.0436,-3.19995 -0.0274,-3.65575 0.13594,-3.82629 0.16509,-0.17243 0.69218,-0.18682 4.82245,-0.13169 5.03529,0.0672 5.78952,0.14116 8.60786,0.84355 1.52996,0.3813 3.33202,1.06955 4.72888,1.80609 1.03899,0.54783 3.22044,1.9246 3.39242,2.14104 0.19779,0.24894 0.3458,0.22038 0.3458,-0.0669 0,-0.13418 0.0521,-0.24395 0.11575,-0.24395 0.22495,0 3.80587,2.91268 4.45533,3.62389 0.36225,0.39673 0.82959,1.07485 1.03852,1.50692 0.35811,0.74056 1.27353,3.86369 1.44671,4.93563 0.14313,0.886 0.20202,0.89367 1.05544,0.13747 0.42756,-0.3789 0.81385,-0.68806 0.85836,-0.68704 0.20129,0.005 0.37182,0.24689 0.81455,1.15701 0.44215,0.90894 0.4838,1.08356 0.60697,2.5448 0.0727,0.86289 0.11382,1.588 0.0916,1.61136 -0.0671,0.0701 -1.39369,-0.31794 -1.97489,-0.57796 -0.50485,-0.22584 -0.56763,-0.22935 -0.89932,-0.0503 -0.67976,0.36718 -0.9426,0.2693 -1.89404,-0.70538 -0.48213,-0.49387 -1.05867,-1.21245 -1.2812,-1.59687 -1.22271,-2.11211 -1.83758,-2.84596 -3.13491,-3.74155 -0.91282,-0.63019 -1.05851,-0.67755 -1.39962,-0.45506 -0.35288,0.23021 -0.74387,0.0339 -1.83747,-0.92239 -1.98235,-1.73347 -3.8272,-2.61463 -6.87926,-3.28577 -2.77283,-0.60972 -7.42684,-0.93323 -10.84375,-0.75371 l -1.73431,0.0911 0.0827,1.23709 c 0.0791,1.18217 0.11073,1.29393 0.71184,2.51794 0.34603,0.70448 0.6726,1.35067 0.7257,1.43596 0.0736,0.1182 1.4106,-0.30987 5.61979,-1.7993 3.03778,-1.07495 5.55405,-1.95442 5.59173,-1.95442 0.0377,0 -0.16008,0.22942 -0.43944,0.50981 -1.16574,1.17002 -2.00348,4.03039 -2.33367,7.96832 -0.14647,1.74688 -0.15519,5.97964 -0.0148,7.24493 l 0.0999,0.9016 2.43505,2.55238 c 3.30592,3.46518 8.63064,8.78172 10.55183,10.53567 0.86712,0.79166 1.59276,1.47974 1.61246,1.52909 0.0198,0.0494 -0.24305,0.11962 -0.58393,0.156 -1.75611,0.18789 -3.55901,0.31893 -4.38741,0.31893 -0.51041,0 -1.25552,0.0359 -1.65582,0.0796 l -0.72781,0.0792 0.44792,0.22138 c 0.24633,0.12169 0.50793,0.22324 0.58129,0.22551 0.2502,0.008 1.79359,2.0455 1.79359,2.36806 0,0.88042 -0.699,3.18983 -1.41791,4.68455 -0.24511,0.50964 -0.43365,0.93821 -0.41899,0.95237 0.0146,0.0141 0.31574,-0.0236 0.66902,-0.0841 0.71873,-0.12299 1.32012,-0.0383 1.25243,0.17609 -0.0247,0.0777 -0.33835,0.22371 -0.69738,0.32435 -0.735,0.20604 -0.89394,0.30575 -0.53263,0.3342 0.37453,0.0296 0.55677,0.27543 0.20532,0.27709 -0.15737,7.1e-4 -0.48323,0.0354 -0.72408,0.0769 -0.34616,0.0598 -0.43795,0.0367 -0.43795,-0.11034 0,-0.23271 -0.28248,-0.35609 -0.43959,-0.19199 -0.0647,0.0678 -0.66237,0.14032 -1.32807,0.16162 -0.92053,0.0294 -1.42926,0.11498 -2.12409,0.35719 -0.50251,0.17515 -0.95415,0.29231 -1.00365,0.26036 -0.0497,-0.0319 -0.26901,-0.006 -0.48781,0.0563 -0.21879,0.063 -1.10728,0.22792 -1.97443,0.36675 -2.76343,0.44244 -3.66165,0.59239 -4.37953,0.73113 -2.06069,0.39828 -3.04865,0.48181 -5.72568,0.48407 -1.54329,9e-4 -3.22504,-0.049 -3.73721,-0.11188 -0.51218,-0.063 -1.367102,-0.15111 -1.899812,-0.19617 -0.8502,-0.0717 -0.94299,-0.1022 -0.75914,-0.24781 0.19071,-0.15107 0.1761,-0.16629 -0.16319,-0.16983 -0.20498,-0.001 -0.39732,0.0377 -0.42744,0.0888 -0.076,0.12827 0.58661,0.88332 0.77509,0.88332 0.19023,0 0.43377,0.24437 0.43377,0.43527 0,0.0785 -0.21779,0.17306 -0.48399,0.21032 -0.26619,0.0372 -0.51582,0.11873 -0.55474,0.18079 -0.0852,0.13612 -0.5373,0.39348 -0.69111,0.39348 -0.0605,0 -0.17558,-0.0823 -0.25555,-0.18297 z m 4.496322,-2.1412 c 0.57809,-0.0701 1.57663,-0.24006 2.21897,-0.37735 0.64232,-0.13731 1.4832,-0.29618 1.8686,-0.35304 1.86986,-0.27585 3.23247,-0.52148 4.02919,-0.72631 3.72108,-0.95661 3.94563,-1.02805 7.00724,-2.22941 2.1912,-0.85979 2.79922,-1.14527 2.84608,-1.33621 0.0209,-0.0856 0.0955,-0.33755 0.16531,-0.55976 0.0698,-0.22222 0.091,-0.38638 0.0468,-0.36476 -0.044,0.0217 -0.34297,0.16999 -0.66411,0.32976 -0.89629,0.44585 -3.97665,1.59384 -4.61713,1.72071 -0.6039,0.11963 -2.5014,0.75373 -3.09086,1.03292 -0.19271,0.0912 -0.56058,0.2043 -0.81753,0.25115 -0.25693,0.0468 -0.84809,0.19197 -1.31365,0.32243 -0.46558,0.13046 -0.886,0.21192 -0.93429,0.18104 -0.0483,-0.0308 -0.53453,0.0495 -1.08051,0.17881 -0.54598,0.12921 -1.21726,0.26825 -1.49172,0.30896 -0.27447,0.0408 -0.52721,0.12156 -0.56165,0.17982 -0.0345,0.0582 -0.25657,0.1062 -0.49366,0.10672 -0.23707,4.5e-4 -1.03543,0.10982 -1.77411,0.24316 -0.7387,0.1333 -1.50073,0.24357 -1.69343,0.24504 -0.26929,0.001 -0.30983,0.0301 -0.17518,0.12092 0.11859,0.08 -0.26531,0.11885 -1.189642,0.12014 l -1.3648,9e-4 0.31372,0.3515 c 0.27436,0.30737 0.40164,0.35323 1.01445,0.36558 0.385402,0.008 1.173712,-0.0432 1.751822,-0.11356 z m 9.05106,0.006 c 0,-0.14318 -0.0897,-0.14318 -0.40876,0 -0.20699,0.0928 -0.197,0.10595 0.0876,0.11343 0.17664,0.005 0.32115,-0.0463 0.32115,-0.11343 z m -8.81749,-1.17254 c 0.5781,-0.0998 1.57664,-0.25909 2.21897,-0.35398 1.48438,-0.21927 2.53665,-0.43612 2.68611,-0.55353 0.0641,-0.0506 0.48468,-0.13123 0.9343,-0.17949 0.44964,-0.0484 1.02775,-0.15667 1.28468,-0.24086 0.25693,-0.0843 0.72991,-0.22249 1.05108,-0.30729 0.32118,-0.0849 1.37227,-0.3972 2.33576,-0.69424 0.96351,-0.29702 1.90949,-0.58281 2.10217,-0.63503 0.42559,-0.11537 2.07913,-0.86469 2.16059,-0.9791 0.0321,-0.0452 0.4583,-0.23267 0.94707,-0.4168 1.19865,-0.45155 2.34415,-1.24987 2.4585,-1.71339 0.0481,-0.19468 0.037,-0.4521 -0.0244,-0.57206 -0.10594,-0.20701 -0.15182,-0.20378 -0.89973,0.0635 -0.43339,0.15491 -0.97548,0.39812 -1.20462,0.54046 -0.22915,0.14237 -0.70697,0.36314 -1.06181,0.49069 -0.35486,0.1275 -0.92941,0.36783 -1.27681,0.534 -0.34737,0.16619 -0.92065,0.40091 -1.27393,0.52162 -0.35328,0.12066 -0.66861,0.25762 -0.70073,0.30425 -0.0321,0.0465 -0.55765,0.22369 -1.16788,0.39351 -3.24039,0.90181 -3.72027,1.04131 -3.83299,1.11408 -0.18092,0.11679 -2.73669,0.69425 -2.79646,0.63183 -0.028,-0.0294 0.17764,-0.11485 0.4571,-0.18998 0.27949,-0.0752 0.82348,-0.24193 1.20888,-0.37058 0.38539,-0.12866 1.25255,-0.37552 1.92699,-0.54861 1.09897,-0.28205 1.76977,-0.48946 4.43795,-1.37213 1.20128,-0.39741 2.59806,-1.0374 5.56815,-2.55128 0.58384,-0.29758 0.84084,-1.25993 0.36222,-1.3562 -0.10904,-0.0219 -0.80214,0.26561 -1.54016,0.63903 -0.73803,0.3734 -1.37237,0.67892 -1.40968,0.67892 -0.0373,0 -0.71006,0.32336 -1.49497,0.71856 -0.78495,0.3952 -1.55856,0.75182 -1.71915,0.7925 -0.29355,0.0743 0.4192,-0.32018 1.70302,-0.94256 0.88074,-0.42697 1.99858,-1.05028 2.42358,-1.3514 0.18161,-0.12866 0.75955,-0.3798 1.28426,-0.55804 0.83042,-0.28202 0.95407,-0.36066 0.95407,-0.60664 0,-0.54192 -0.2998,-0.5667 -1.4094,-0.11653 -0.56555,0.22947 -1.29439,0.61097 -1.61966,0.84776 -0.32523,0.23678 -0.7753,0.5265 -1.00011,0.6438 -0.22481,0.1173 -0.48761,0.2639 -0.58394,0.32575 -0.23929,0.15362 -2.0539,0.97867 -2.15248,0.97867 -0.0438,0 -0.29977,0.10014 -0.56924,0.22253 -1.14734,0.52108 -3.87215,1.4853 -4.19739,1.4853 -0.10827,0 -0.42197,0.0743 -0.6972,0.1654 -0.72897,0.2409 -1.29192,0.39822 -2.60262,0.72723 -2.34945,0.58979 -2.82399,0.68106 -3.91239,0.75259 -0.61022,0.04 -1.293432,0.12195 -1.518242,0.18185 -0.89337,0.23811 -2.01831,0.2365 -2.67331,-0.001 -0.34624,-0.12698 -0.65718,-0.25987 -0.69099,-0.29518 -0.14934,-0.15599 0.0825,-0.15366 0.67459,0.006 0.9227,0.25002 1.28825,0.22989 1.28825,-0.071 0,-0.15732 -0.0778,-0.24397 -0.21926,-0.24397 -0.30191,0 -0.42713,-0.19913 -0.59468,-0.94577 -0.16952,-0.75528 -0.25625,-0.83392 -0.70541,-0.63956 -0.18556,0.0803 -0.40574,0.12066 -0.4893,0.0898 -0.0836,-0.0307 0.0715,-0.12737 0.34443,-0.21455 0.27299,-0.0872 0.49635,-0.21051 0.49635,-0.27416 0,-0.0637 -0.0831,-0.0823 -0.18474,-0.0416 -0.10156,0.0408 -0.27241,0.0748 -0.37957,0.076 -0.4635,0.005 -0.52012,0.17121 -0.3027,0.89161 0.17318,0.57389 0.25781,0.69399 0.53357,0.75725 0.18026,0.0414 0.3897,0.035 0.46542,-0.0137 0.0863,-0.0557 0.10659,-0.0364 0.0543,0.0519 -0.0458,0.0774 -0.26346,0.14083 -0.48363,0.14083 -0.34709,0 -0.42299,-0.0566 -0.57109,-0.42694 -0.0939,-0.23481 -0.2196,-0.42698 -0.27927,-0.42698 -0.23286,0 -0.954528,0.37624 -0.954528,0.49765 0,0.34588 0.499858,1.02367 0.992698,1.34606 0.19271,0.12608 0.28467,0.22939 0.20438,0.22964 -0.52318,9.1e-4 0.41079,1.20153 0.96091,1.23449 0.19686,0.0116 0.20215,0.0235 0.0317,0.0698 -0.32947,0.09 -0.24162,0.30873 0.3497,0.87099 l 0.55542,0.52815 1.34306,-0.0782 c 0.738682,-0.0431 1.816042,-0.15993 2.394142,-0.25973 z m -2.711792,-0.86908 c 0.30705,-0.0254 0.78004,-0.0249 1.051082,7.1e-4 0.27107,0.0256 0.0197,0.0462 -0.558262,0.0458 -0.57809,-3.6e-4 -0.79987,-0.0214 -0.49282,-0.0465 z m -1.22844,-0.11847 c 0.14528,-0.0292 0.3555,-0.028 0.46715,10e-4 0.11163,0.0303 -0.008,0.0543 -0.26413,0.053 -0.25693,-9e-4 -0.34829,-0.0263 -0.20302,-0.0556 z m 4.108852,-0.15434 c 0.6066,-0.13239 1.12168,-0.22109 1.14463,-0.19712 0.099,0.10337 -0.79054,0.33209 -1.48843,0.38274 -0.74819,0.0543 -0.74325,0.0517 0.3438,-0.18562 z m 1.46641,-0.36363 c 0.2242,-0.1062 0.84973,-0.17526 0.74938,-0.0829 -0.0268,0.0247 -0.25887,0.0783 -0.5158,0.11912 -0.32559,0.0517 -0.39637,0.0408 -0.23358,-0.0361 z m 0.9635,-0.20847 c 0.0804,-0.0338 0.21169,-0.0338 0.29198,0 0.0804,0.0338 0.0146,0.0616 -0.14599,0.0616 -0.16059,0 -0.22627,-0.0277 -0.14599,-0.0616 z m -7.062242,-0.34265 c -0.84519,-0.13898 -1.25287,-0.31109 -0.72361,-0.30548 0.15524,9e-4 0.51874,0.063 0.80779,0.13617 0.28904,0.0733 0.91655,0.12556 1.39445,0.11614 0.4779,-0.0103 0.84577,0.005 0.8175,0.0302 -0.14215,0.13094 -1.55332,0.14498 -2.29613,0.0227 z m 2.60667,-0.045 c -0.0725,-0.12233 2.155442,-0.5683 2.392782,-0.47891 0.0907,0.0341 -0.0452,0.0995 -0.30216,0.14503 -0.25693,0.0455 -0.79328,0.16238 -1.19188,0.25958 -0.851652,0.20771 -0.821292,0.2052 -0.898742,0.0743 z m 2.616162,-0.55334 c 0,-0.0254 0.48613,-0.13911 1.0803,-0.2531 2.99845,-0.57531 3.52192,-0.68745 3.63921,-0.77991 0.0698,-0.0551 0.54763,-0.2228 1.06148,-0.37257 0.51388,-0.1498 1.23821,-0.38591 1.60965,-0.52471 0.37142,-0.1388 0.70519,-0.22115 0.74171,-0.183 0.0365,0.0382 -0.14915,0.12993 -0.41256,0.20402 -0.26341,0.0741 -0.47894,0.18749 -0.47894,0.25199 0,0.0645 -0.12311,0.11731 -0.27368,0.11731 -0.26924,0 -1.42952,0.37364 -1.88691,0.60764 -0.1284,0.0658 -0.96931,0.25701 -1.86859,0.42506 -0.89927,0.16803 -1.81861,0.36125 -2.04301,0.42933 -0.39467,0.11962 -1.16866,0.17137 -1.16866,0.0779 z m 9.73819,-2.64089 c 0.44216,-0.13695 0.82669,-0.22521 0.85453,-0.19614 0.0705,0.0734 -0.62977,0.29517 -1.1913,0.37704 -0.30819,0.045 -0.19361,-0.0166 0.33677,-0.1809 z m 10.4661,5.00452 c 0,-0.0671 -0.0527,-0.12195 -0.11679,-0.12195 -0.0643,0 -0.11679,0.055 -0.11679,0.12195 0,0.0671 0.0526,0.12195 0.11679,0.12195 0.0644,0 0.11679,-0.055 0.11679,-0.12195 z m -2.23222,-0.89223 c 0.24792,-0.97601 0.37793,-2.72138 0.39386,-5.28685 l 0.016,-2.58042 -0.28591,-0.31467 c -0.27321,-0.3007 -0.67005,-0.45138 -0.51975,-0.19737 0.1646,0.2782 0.21069,0.78043 0.26316,2.86719 0.0612,2.43165 -0.0551,3.69935 -0.5187,5.6549 -0.072,0.30401 0.12583,0.52654 0.37813,0.42539 0.079,-0.0318 0.20185,-0.28731 0.27319,-0.56817 z m 1.29791,0.40427 c 0,-0.0671 -0.0495,-0.12195 -0.10982,-0.12195 -0.0605,0 -0.14239,0.055 -0.18208,0.12195 -0.0397,0.0671 0.009,0.12195 0.10982,0.12195 0.10001,0 0.18207,-0.055 0.18207,-0.12195 z m 1.55908,-0.0573 c 0.37572,-0.0937 0.71733,-0.20707 0.75912,-0.25186 0.15352,-0.16453 -1.79641,0.0945 -1.96367,0.26092 -0.14816,0.14737 -0.12466,0.1695 0.17517,0.16575 0.19041,-0.001 0.65364,-0.0809 1.02938,-0.17481 z m -2.14302,-0.30879 c 0,-0.0671 -0.0232,-0.12195 -0.0516,-0.12195 -0.0284,0 -0.084,0.055 -0.12375,0.12195 -0.0397,0.0671 -0.0165,0.12195 0.0515,0.12195 0.068,0 0.12375,-0.055 0.12375,-0.12195 z m -1.16788,-0.97592 c 0,-0.0671 -0.0497,-0.12195 -0.10982,-0.12195 -0.0604,0 -0.14236,0.055 -0.18208,0.12195 -0.0397,0.0671 0.009,0.12195 0.10982,0.12195 0.10001,0 0.18207,-0.055 0.18207,-0.12195 z m 2.73796,-0.96867 c -0.2943,-0.55797 -0.68733,-0.96386 -1.01534,-1.04858 -0.51407,-0.13281 -0.40063,0.19824 0.33582,0.97988 0.476,0.50521 0.68276,0.6537 0.75059,0.53909 0.053,-0.0895 0.0222,-0.29364 -0.0711,-0.47039 z m -23.459092,-0.0367 c 0.021,-0.0219 -0.0325,-0.39478 -0.11885,-0.82861 -0.0863,-0.43384 -0.13391,-0.81417 -0.10569,-0.84521 0.0281,-0.0311 0.15026,0.009 0.27122,0.087 0.19325,0.12608 0.22907,0.10001 0.29533,-0.2151 0.0845,-0.40216 0.005,-0.60852 -0.23291,-0.60852 -0.0881,0 -0.19379,-0.10982 -0.23456,-0.24396 -0.10749,-0.35373 -0.61433,-0.33044 -0.6634,0.0303 -0.029,0.213 -0.11369,0.27449 -0.37796,0.27449 -0.18733,0 -0.35419,-0.0701 -0.37079,-0.15556 -0.0166,-0.0856 -0.003,-0.0996 0.0289,-0.0316 0.0868,0.18243 0.47591,-0.0663 0.56564,-0.36152 0.0406,-0.1341 0.21106,-0.27972 0.37847,-0.32361 0.24502,-0.0643 0.3564,-0.0116 0.571,0.26941 0.14662,0.19208 0.30151,0.31274 0.3442,0.26815 0.14119,-0.14747 -0.0714,-1.19027 -0.24266,-1.19027 -0.0887,0 -0.5253,0.13724 -0.97047,0.30499 -0.88005,0.33159 -1.00181,0.35852 -0.90864,0.20103 0.0338,-0.0572 0.48363,-0.22943 0.99959,-0.38288 0.51596,-0.15346 0.93811,-0.32628 0.93811,-0.38405 0,-0.0578 -0.2759,-0.11459 -0.61314,-0.12646 -0.59703,-0.0208 -0.59991,-0.0226 -0.10956,-0.0684 0.39795,-0.037 0.49511,-0.0903 0.46329,-0.25315 -0.0523,-0.26768 -0.87528,-0.25319 -2.32534,0.041 -0.78389,0.15904 -1.0742,0.27115 -1.16596,0.45023 -0.0672,0.13116 -0.10256,0.25896 -0.0786,0.28405 0.024,0.025 0.33044,-0.0301 0.68099,-0.12234 0.35055,-0.0923 0.92641,-0.19793 1.27969,-0.23454 0.58651,-0.0609 0.60173,-0.0567 0.17518,0.0487 -0.25693,0.0635 -0.65109,0.1687 -0.87589,0.2341 -0.22483,0.0653 -0.60586,0.15123 -0.84672,0.1908 -0.31712,0.0521 -0.43796,0.13212 -0.43796,0.29006 0,0.33763 0.10347,0.37412 0.53132,0.18739 0.6282,-0.27415 0.75468,-0.19217 0.14021,0.091 -0.55139,0.25401 -0.63858,0.3855 -0.45548,0.68693 0.0754,0.12414 0.21702,0.12912 0.66755,0.0236 0.40202,-0.0941 0.58417,-0.0954 0.61324,-0.005 0.0227,0.0714 0.0894,0.0986 0.14816,0.0605 0.0587,-0.0378 0.10685,0.0907 0.10685,0.28602 0,0.46844 0.22354,1.12328 0.38347,1.12328 0.24055,0 0.66762,0.53103 0.66762,0.83013 0,0.27629 0.033,0.29409 0.42324,0.22794 0.23276,-0.0395 0.44037,-0.0897 0.46136,-0.11163 z m -1.93568,-2.78013 c 0,-0.065 0.0789,-0.11821 0.17517,-0.11821 0.0964,0 0.17518,0.0216 0.17518,0.0479 0,0.0265 -0.0789,0.0796 -0.17518,0.11821 -0.0964,0.0386 -0.17517,0.017 -0.17517,-0.0479 z m 3.036472,2.56557 c 0,-0.13419 -0.0558,-0.24398 -0.12363,-0.24398 -0.068,0 -0.0948,-0.0488 -0.0597,-0.10827 0.0352,-0.0594 -0.0164,-0.17792 -0.11486,-0.26318 -0.144742,-0.12556 -0.205752,-0.12518 -0.319892,9e-4 -0.11047,0.1226 -0.10763,0.1692 0.013,0.21522 0.11085,0.0423 0.0863,0.1084 -0.0876,0.23565 -0.36767,0.269 -0.29124,0.407 0.22539,0.407 0.389292,0 0.467142,-0.0408 0.467142,-0.24396 z m 1.00729,0 c 0.10002,0 0.16659,-0.14944 0.17649,-0.39646 0.0116,-0.2995 0.0285,-0.32749 0.0675,-0.11447 0.0284,0.15507 0.12195,0.31013 0.2079,0.34459 0.2013,0.0806 2.32925,-0.26837 3.38758,-0.55567 0.79355,-0.21542 0.81867,-0.23401 0.85698,-0.63435 0.0621,-0.64962 -0.1013,-2.13952 -0.25962,-2.36564 -0.13139,-0.1877 -0.17735,-0.17552 -0.53675,0.14208 -0.21619,0.19102 -0.79125,0.57264 -1.27793,0.84805 -0.48669,0.2754 -0.87174,0.5636 -0.85568,0.64042 0.0161,0.0769 -0.077,0.13973 -0.20687,0.13973 -0.12984,0 -0.44656,0.14547 -0.70382,0.32331 -0.43854,0.30313 -0.49851,0.31376 -0.96099,0.17037 -0.2713,-0.0841 -0.55387,-0.20447 -0.62793,-0.26744 -0.0741,-0.063 -0.29743,-0.16327 -0.49634,-0.22287 l -0.361702,-0.1084 v 0.53378 c 0,0.46219 0.0431,0.55523 0.321172,0.69377 0.23999,0.1195 0.33066,0.26339 0.35873,0.5691 0.0354,0.3856 0.0581,0.40484 0.39416,0.3346 0.19613,-0.0409 0.42885,-0.0743 0.51717,-0.0743 z m 0.1698,-1.04705 c 0.005,-0.14211 0.0332,-0.17102 0.0706,-0.0737 0.0338,0.0881 0.0296,0.19326 -0.009,0.23379 -0.0388,0.0404 -0.0665,-0.0315 -0.0613,-0.1601 z m 3.23166,-0.74902 c 0.20875,-0.027 0.55036,-0.027 0.75911,0 0.20876,0.0271 0.0379,0.049 -0.37957,0.049 -0.4175,0 -0.5883,-0.0221 -0.37954,-0.049 z m -0.87369,-0.11834 c 0.11369,-0.0308 0.27129,-0.0289 0.35037,0.005 0.0791,0.0333 -0.0139,0.0587 -0.20662,0.0564 -0.19268,-0.001 -0.25739,-0.0301 -0.14375,-0.0608 z m 19.29938,1.6624 c 0.0603,-0.19814 -0.0659,-0.39618 -0.59103,-0.92731 -0.47461,-0.48015 -0.69392,-0.63087 -0.75871,-0.52139 -0.13117,0.22182 -1.4e-4,0.50046 0.52978,1.12614 0.52369,0.61826 0.70806,0.69079 0.81996,0.32256 z m -23.651952,-0.5327 c 0,-0.0887 -0.0788,-0.22918 -0.17517,-0.31272 -0.14283,-0.12389 -0.1752,-0.11718 -0.1752,0.0361 0,0.30443 0.13306,0.57774 0.24583,0.50495 0.0576,-0.0372 0.10452,-0.13986 0.10452,-0.22833 z m 23.941492,-0.30976 c 0,-0.40246 -0.13518,-0.61398 -0.62718,-0.98101 -0.72398,-0.54018 -1.30875,-1.09554 -1.15348,-1.09554 0.0756,0 0.31014,0.15453 0.52112,0.3434 0.35309,0.31606 1.12067,0.75447 1.32098,0.75447 0.0466,0 0.051,-0.17839 0.009,-0.39645 -0.0952,-0.50532 -1.0791,-1.4914 -1.59586,-1.59936 -0.70873,-0.14804 -0.71349,-0.14333 -0.68157,0.67399 l 0.0294,0.75193 0.98431,0.95485 c 0.96465,0.93583 1.19241,1.04922 1.19241,0.59372 z m -15.30796,-0.44246 c 0.48657,-0.17468 0.89862,-0.33106 0.91565,-0.3475 0.0449,-0.0435 -2.35915,0.0786 -2.40659,0.12221 -0.0219,0.0201 -0.005,0.15048 0.0369,0.28974 0.10156,0.33423 0.37736,0.32201 1.45386,-0.0644 z m 0.77218,-0.59939 c 0.14612,-0.0311 0.2971,-0.22175 0.39154,-0.49452 0.27287,-0.7882 0.61483,-1.5381 0.67347,-1.47686 0.0314,0.0328 -0.071,0.35301 -0.22725,0.71156 -0.51584,1.18277 -0.51563,1.20087 0.0138,1.20087 0.26874,0 0.95619,-0.20681 1.64,-0.49334 0.64751,-0.27135 1.34141,-0.51507 1.54198,-0.5416 0.41947,-0.0555 1.96984,-0.87113 2.91116,-1.5316 0.35328,-0.24788 0.97016,-0.63639 1.37086,-0.86338 0.40071,-0.22697 0.72915,-0.46133 0.72994,-0.52075 6.7e-4,-0.0618 -0.58762,-0.0699 -1.37088,-0.0194 -0.75474,0.0489 -2.16595,0.10646 -3.13604,0.1284 -0.97007,0.0219 -2.00831,0.0781 -2.30717,0.12479 -0.53428,0.0836 -0.54635,0.0956 -0.71971,0.71158 -0.15186,0.53958 -0.40197,1.11738 -0.4032,0.93147 -6.9e-4,-0.10104 0.31482,-1.26516 0.40498,-1.49436 0.14283,-0.36312 -0.19696,-0.2553 -1.77352,0.56273 -0.82277,0.42692 -1.66675,0.84529 -1.8755,0.92971 -0.20877,0.0844 -0.37852,0.21546 -0.37725,0.29118 0.005,0.2803 0.2359,1.81569 0.28622,1.9007 0.0512,0.0862 1.75764,0.0425 2.22669,-0.0572 z m 15.00293,-1.22583 c 0,-0.37721 -0.10466,-0.5404 -0.78831,-1.22924 -0.99897,-1.00653 -1.2283,-1.16719 -1.73367,-1.21456 -0.37494,-0.0352 -0.40332,-0.0156 -0.32935,0.22791 0.12815,0.42143 0.55226,1.04139 0.80756,1.18022 0.4537,0.24671 0.70654,0.43925 1.25045,0.95217 0.30235,0.28516 0.60454,0.51847 0.67154,0.51847 0.0671,0 0.12182,-0.19573 0.12182,-0.43497 z m -27.445122,-1.09001 c 0.27308,-0.10079 0.71326,-0.18614 0.97818,-0.19003 0.26491,-0.001 0.68122,-0.0452 0.92511,-0.0914 0.40064,-0.0764 0.42864,-0.10556 0.29016,-0.30273 -0.14501,-0.20653 -0.19302,-0.20765 -0.8915,-0.0209 -0.40605,0.10866 -0.76414,0.1705 -0.79578,0.13744 -0.0316,-0.0332 0.23568,-0.12363 0.59405,-0.20138 0.35838,-0.0776 0.65043,-0.17857 0.649,-0.22413 -0.008,-0.24713 -0.4581,-0.64644 -0.76085,-0.67461 -0.38049,-0.0355 -0.87158,0.22781 -0.87158,0.46716 0,0.11666 0.13959,0.1257 0.59593,0.0391 0.82557,-0.15675 0.83925,-0.049 0.0179,0.14083 -0.80779,0.18692 -1.08102,0.32486 -1.08102,0.54579 0,0.0911 -0.0789,0.19723 -0.17517,0.23585 -0.18729,0.075 -0.24332,0.32184 -0.0731,0.32184 0.0562,0 0.32554,-0.0823 0.59863,-0.18298 z m -0.0854,-0.38952 c 0.1137,-0.0308 0.2713,-0.0286 0.35037,0.005 0.0791,0.0333 -0.0139,0.0587 -0.20661,0.0563 -0.19269,-0.001 -0.25738,-0.0299 -0.14376,-0.0608 z m 3.05852,-1.10839 c -0.092,-1.41073 -0.17305,-1.8566 -0.33492,-1.84352 -0.0585,0.005 -0.15305,-0.0786 -0.21019,-0.18528 -0.147,-0.27437 -0.44265,-0.24094 -0.44265,0.0501 0,0.16749 0.0823,0.24841 0.26277,0.25812 0.22055,0.0116 0.22746,0.0235 0.043,0.073 -0.12091,0.0323 -0.40181,0.24902 -0.62429,0.4814 -0.38366,0.40075 -0.39698,0.44251 -0.25879,0.81136 0.173,0.46177 1.38836,1.81032 1.54208,1.7111 0.0626,-0.0404 0.0721,-0.60348 0.023,-1.35628 z m -1.82635,-0.54459 c -0.0246,-0.18046 0.0778,-0.38092 0.30098,-0.58866 0.42077,-0.3918 0.47759,-0.86097 0.17842,-1.47349 l -0.23002,-0.47097 -0.63946,0.0463 c -0.69871,0.0507 -0.91584,0.18239 -1.17982,0.7156 -0.15821,0.31956 -0.15432,0.38724 0.0425,0.74081 0.11911,0.21401 0.40672,0.48341 0.63902,0.59866 0.33022,0.16383 0.40882,0.26362 0.3603,0.45743 -0.051,0.2038 -0.006,0.24793 0.25164,0.24793 0.25829,0 0.30712,-0.0483 0.27639,-0.27368 z m -0.76723,-0.53905 c -0.27099,-0.1142 -0.14847,-0.28516 0.20437,-0.28516 0.19464,0 0.35036,-0.065 0.35036,-0.1464 0,-0.10065 0.0376,-0.10698 0.12066,-0.0203 0.30788,0.32162 -0.19159,0.65585 -0.67535,0.45197 z m 0.10827,-0.71858 c 0.0528,-0.26496 0.26008,-0.28117 0.30749,-0.0241 0.0247,0.13351 -0.0327,0.21347 -0.15295,0.21347 -0.11227,0 -0.17657,-0.079 -0.15454,-0.18943 z m -0.60458,-0.23751 c 0,-0.10079 0.0789,-0.18298 0.17518,-0.18298 0.0964,0 0.17519,0.0823 0.17519,0.18298 0,0.10065 -0.0789,0.18298 -0.17519,0.18298 -0.0964,0 -0.17518,-0.0823 -0.17518,-0.18298 z m 1.23597,0.0773 c -0.0503,-0.085 -0.06,-0.18754 -0.0214,-0.22782 0.10452,-0.10917 0.21847,0.0512 0.16203,0.22829 -0.0395,0.12401 -0.0671,0.12388 -0.14065,-4.5e-4 z m 20.100282,-0.22201 c -1.42898,-2.74186 -3.103,-6.08605 -4.18679,-8.36399 -0.59852,-1.258 -1.13205,-2.28726 -1.18565,-2.28726 -0.11524,0 3.50956,7.4904 5.00552,10.3434 0.57309,1.09296 1.0591,1.93366 1.08001,1.86814 0.021,-0.0656 -0.3,-0.76764 -0.71309,-1.56029 z m -9.27295,0.62881 c -0.17936,-0.23688 -0.4575,-0.46106 -0.6181,-0.49812 -0.56446,-0.13035 -0.5736,-0.14105 -0.50391,-0.58962 0.0439,-0.28243 0.0213,-0.43332 -0.0647,-0.43332 -0.20255,0 -0.15678,0.7452 0.0612,0.99679 0.10634,0.12273 0.28156,0.22309 0.38944,0.22309 0.10789,0 0.33665,0.16467 0.50835,0.36594 0.43685,0.51212 0.62424,0.45884 0.22775,-0.0648 z m -12.530482,0.0613 c 0,-0.15722 -0.33273,-0.29922 -0.4396,-0.1876 -0.0435,0.0454 -10e-4,0.13378 0.0926,0.19618 0.22607,0.14935 0.34697,0.14634 0.34697,-0.009 z m 10.094052,-1.14628 c 0.22172,0.0582 0.27999,-0.0317 0.51538,-0.79522 0.14599,-0.4734 0.23524,-0.91176 0.19836,-0.97412 -0.0369,-0.0623 -0.0137,-0.14786 0.0516,-0.18999 0.0653,-0.0422 0.11872,-0.13926 0.11872,-0.21584 0,-0.10027 -0.0391,-0.0982 -0.14016,0.008 -0.077,0.0807 -0.19269,0.14637 -0.25693,0.14637 -0.0649,0 -0.0545,-0.065 0.0234,-0.14637 0.077,-0.0807 0.13842,-0.20401 0.13629,-0.27449 -0.003,-0.0705 -0.11072,0.006 -0.24152,0.17013 l -0.23762,0.29824 0.079,-0.32873 c 0.0502,-0.20886 0.0317,-0.32872 -0.0505,-0.32872 -0.0712,0 -0.12945,0.0791 -0.12945,0.17579 0,0.25369 -0.19526,0.34217 -0.44593,0.20204 -0.18493,-0.10337 -0.2894,-0.0145 -0.70316,0.59834 -0.26727,0.39588 -0.48592,0.76851 -0.48592,0.82811 0,0.0596 0.14178,0.17585 0.31506,0.25833 0.24709,0.11756 0.27932,0.17302 0.14936,0.25693 -0.0911,0.0587 -0.12907,0.14522 -0.0843,0.19197 0.0448,0.0467 0.16149,0.0156 0.25939,-0.0693 0.11099,-0.0961 0.178,-0.10556 0.178,-0.0247 0,0.0715 -0.0526,0.16365 -0.11679,0.20514 -0.0643,0.0414 -0.11679,0.13554 -0.11679,0.20907 0,0.0734 0.11408,0.0292 0.2534,-0.0987 0.21173,-0.19421 0.24184,-0.19927 0.18321,-0.0309 -0.10466,0.30071 0.0676,0.40289 0.19133,0.11344 0.0756,-0.17707 0.17944,-0.2307 0.35666,-0.18422 z m 2.89364,-0.30139 -0.38452,-0.34371 0.55971,-0.15729 c 0.30783,-0.0866 0.6096,-0.20406 0.67063,-0.26127 0.19822,-0.18581 -0.3795,-0.11175 -0.81318,0.10415 -0.41786,0.20814 -0.41844,0.20803 -0.6755,-0.12776 -0.21966,-0.28693 -0.28521,-0.31293 -0.448,-0.1778 -0.18676,0.15505 -0.37465,1.11294 -0.24488,1.2485 0.0361,0.0377 0.43801,0.0663 0.89301,0.0637 l 0.82723,-0.005 -0.3845,-0.34369 z m -1.01694,-0.74417 c -0.0397,-0.0671 -0.0196,-0.12195 0.0445,-0.12195 0.0644,0 0.14926,0.055 0.18894,0.12195 0.0397,0.0671 0.0197,0.12195 -0.0445,0.12195 -0.0644,0 -0.14927,-0.055 -0.18897,-0.12195 z m -4.54883,-0.62206 c 0.16598,-0.34213 0.28468,-0.63995 0.26376,-0.66177 -0.0717,-0.075 -1.14556,0.46098 -1.14556,0.57174 0,0.0609 0.10621,0.0512 0.23599,-0.0212 0.3348,-0.18715 0.47891,-0.0534 0.34348,0.31858 -0.12725,0.34946 -0.13598,0.41469 -0.056,0.41469 0.0311,0 0.19223,-0.27994 0.35822,-0.62206 z m -0.46194,0.1164 c 0.22128,-0.26033 0.22106,-0.26098 -0.0403,-0.11769 -0.14454,0.0792 -0.2628,0.197 -0.2628,0.26173 0,0.1733 0.056,0.14674 0.30309,-0.14403 z m 1.06636,-1.29085 c -0.0426,0.11588 -0.0414,0.21077 10e-4,0.21077 0.20138,0 1.08052,-0.41048 1.08052,-0.50451 0,-0.13994 -0.0814,-0.13297 -0.38723,0.0332 -0.23795,0.12921 -0.23546,0.11524 0.0368,-0.20732 l 0.29197,-0.34582 -0.30882,0.20168 c -0.3009,0.19646 -0.30728,0.19472 -0.24819,-0.0672 0.0591,-0.2618 0.0561,-0.26261 -0.11511,-0.0316 -0.16808,0.22704 -0.18712,0.21379 -0.4377,-0.30497 -0.14408,-0.29829 -0.26865,-0.55076 -0.27681,-0.56106 -0.008,-0.0103 -0.36818,0.0199 -0.80003,0.067 -0.72071,0.0786 -0.77105,0.0694 -0.61313,-0.11292 0.26532,-0.30623 0.21505,-0.34279 -0.3827,-0.2782 -0.62132,0.0672 -0.73532,0.1275 -0.51237,0.27146 0.11808,0.0763 0.10698,0.11666 -0.0493,0.17923 -0.11098,0.0444 -0.17518,0.10852 -0.14277,0.14237 0.0324,0.0338 0.2082,0.001 0.39067,-0.0701 0.31998,-0.12711 0.32471,-0.12363 0.13299,0.0977 -0.24699,0.28507 -0.26188,0.47778 -0.0209,0.26881 0.0979,-0.0849 0.18988,-0.13278 0.20439,-0.10634 0.0146,0.0263 0.15551,0.31568 0.31334,0.64298 0.15781,0.32729 0.38582,0.72638 0.50668,0.88688 l 0.21973,0.29176 0.5963,-0.45723 c 0.38967,-0.29877 0.56947,-0.38416 0.51888,-0.24643 z m -0.25996,-1.84168 c 0.32296,-0.0237 0.40902,-0.26529 0.0945,-0.26529 -0.17263,0 -0.16897,-0.0232 0.029,-0.18486 0.21363,-0.1742 0.20649,-0.18019 -0.12363,-0.10376 l -0.35035,0.0813 0.23358,-0.28005 c 0.1284,-0.15405 0.17781,-0.25833 0.10969,-0.23173 -0.0683,0.0266 -0.31679,0.27336 -0.5525,0.54845 l -0.4286,0.50013 0.34814,-0.0214 c 0.19146,-0.0116 0.4795,-0.0308 0.64008,-0.0427 z m -0.17359,-1.57667 c 6.8e-4,-0.1845 0.0329,-0.45765 0.0714,-0.60701 0.0572,-0.22279 0.10931,-0.24941 0.29037,-0.14819 0.28539,0.15952 0.3008,-0.0683 0.0164,-0.24141 -0.17321,-0.10543 -0.15095,-0.12711 0.14598,-0.14252 l 0.35038,-0.0182 -0.35038,-0.0836 c -0.3331,-0.0798 -0.33742,-0.0883 -0.0876,-0.17677 0.14453,-0.0511 0.26276,-0.14421 0.26276,-0.20676 0,-0.14217 -0.005,-0.14197 -0.44552,0.0187 -0.29842,0.10865 -0.48288,0.0858 -1.02908,-0.12763 -0.49617,-0.19393 -0.68735,-0.22307 -0.75153,-0.1146 -0.0474,0.08 -0.17605,0.10944 -0.28603,0.0652 -0.1466,-0.0587 -0.1819,-0.0308 -0.13224,0.10415 0.0416,0.11304 0.001,0.18437 -0.10375,0.18437 -0.0943,0 -0.17152,0.055 -0.17152,0.12194 0,0.0671 0.11821,0.12376 0.26278,0.12596 0.24332,0.001 0.24764,0.016 0.0583,0.16595 -0.25067,0.19875 -0.26841,0.36989 -0.0284,0.27367 0.14537,-0.0582 0.16327,0.0129 0.10285,0.40791 -0.0795,0.51923 -0.0576,0.53643 0.83067,0.65222 0.924,0.1204 0.9926,0.10285 0.99429,-0.25326 z m 1.32756,-2.44364 c -0.0569,-0.19226 -0.0512,-0.19196 0.0693,0.001 0.1838,0.29861 0.39509,0.27888 0.2407,-0.0225 -0.16259,-0.31731 -0.15291,-0.4562 0.0192,-0.27639 0.077,0.0806 0.22158,0.14464 0.32114,0.14251 0.15171,-0.001 0.1477,-0.0303 -0.0248,-0.16709 -0.19488,-0.15446 -0.19315,-0.17219 0.0321,-0.33158 0.23782,-0.16824 0.23777,-0.16917 -0.0683,-0.99182 -0.16848,-0.45286 -0.35637,-0.82341 -0.41755,-0.82341 -0.0612,0 -0.26629,0.0836 -0.4558,0.18611 -0.32515,0.17566 -0.34457,0.17262 -0.34457,-0.0538 0,-0.13195 -0.0601,-0.27876 -0.13373,-0.32622 -0.0933,-0.0603 -0.1146,0.0183 -0.0703,0.25995 l 0.0635,0.34628 -0.21903,-0.29764 c -0.23754,-0.32285 -0.29795,-0.24257 -0.10337,0.1373 0.1343,0.26212 0.003,0.31688 -0.21433,0.0896 -0.10234,-0.10685 -0.14015,-0.1084 -0.14015,-0.006 0,0.0772 0.0821,0.18835 0.18258,0.24705 0.16555,0.0968 0.16555,0.12143 0,0.26499 -0.1004,0.087 -0.18258,0.19651 -0.18258,0.24328 0,0.17033 0.9558,1.40904 1.06351,1.3783 0.0609,-0.0173 0.14119,0.051 0.17825,0.1518 0.0921,0.25069 0.28175,0.10711 0.20418,-0.15456 z m 2.74099,-1.06349 c 0.14762,0.23964 0.14939,0.23933 0.0982,-0.0169 -0.0461,-0.23139 0.0266,-0.27845 0.64253,-0.41498 0.7802,-0.17292 0.74856,-0.053 0.37396,-1.41597 l -0.1726,-0.62806 -0.6083,0.16915 c -0.33456,0.0931 -0.61978,0.16983 -0.63383,0.17063 -0.0139,7.1e-4 0.004,-0.0809 0.0417,-0.18156 0.0368,-0.10052 0.0129,-0.18296 -0.0536,-0.18296 -0.0665,0 -0.14474,0.096 -0.17411,0.21348 -0.0403,0.16064 -0.0568,0.14556 -0.0671,-0.0609 -0.0194,-0.391 -0.24714,-0.34139 -0.24714,0.0538 0,0.31483 -0.008,0.31859 -0.17146,0.0914 -0.26658,-0.36814 -0.20949,-0.10866 0.13003,0.59069 0.27674,0.57014 0.29697,0.69722 0.19438,1.22102 -0.0628,0.32155 -0.0706,0.61298 -0.0169,0.64764 0.0536,0.0347 0.0992,-0.009 0.10118,-0.0967 9e-4,-0.0877 0.0659,-0.0499 0.14223,0.0844 0.13063,0.22987 0.14248,0.22282 0.20457,-0.12195 0.0627,-0.34853 0.073,-0.35433 0.21617,-0.12195 z m 3.87145,-1.89082 c -0.0689,-0.13418 -0.0957,-0.24396 -0.0601,-0.24396 0.0355,0 -0.0517,-0.23331 -0.1947,-0.51845 -0.14274,-0.28515 -0.24893,-0.55963 -0.23592,-0.60994 0.0129,-0.0503 -0.0325,-0.0914 -0.10105,-0.0914 -0.0756,0 -0.0925,0.10827 -0.0431,0.27446 0.11356,0.38301 0.62619,1.43337 0.69953,1.43337 0.0333,0 0.005,-0.10982 -0.0644,-0.24398 z m 0.46714,-0.24165 c 0,-0.19789 -0.74379,-1.71013 -0.8411,-1.71013 -0.0497,0 0.0462,0.31561 0.21309,0.70143 0.16687,0.38577 0.32999,0.79747 0.36252,0.9149 0.0625,0.22558 0.26548,0.2973 0.26548,0.0938 z m -2.71375,-0.46783 c -0.13476,-0.37288 -0.32272,-0.52556 -0.32272,-0.26213 0,0.15317 0.36549,0.75249 0.42254,0.69292 0.0222,-0.0232 -0.0226,-0.21714 -0.0998,-0.43079 z m 4.23199,-1.17412 c 0,-0.0296 -0.0526,-0.0877 -0.11678,-0.1292 -0.0644,-0.0414 -0.11679,-0.0173 -0.11679,0.0538 0,0.071 0.0526,0.1292 0.11679,0.1292 0.0641,0 0.11678,-0.0243 0.11678,-0.0538 z m -0.46715,-1.59301 c 0,-0.29823 0.0526,-0.42698 0.17518,-0.42698 0.24263,0 0.22048,-0.21372 -0.0292,-0.28188 -0.15381,-0.0421 -0.13935,-0.0594 0.0585,-0.0699 0.3387,-0.0182 0.34508,-0.25812 0.008,-0.25812 -0.25091,0 -0.2515,-0.001 -0.0292,-0.19128 0.21699,-0.18312 0.21296,-0.18823 -0.0945,-0.11963 -0.23504,0.0524 -0.32118,0.0239 -0.32118,-0.10646 0,-0.31328 -0.19514,-0.32146 -0.9513,-0.04 -0.52183,0.19429 -0.7521,0.34586 -0.78342,0.51574 -0.0244,0.1323 -0.13021,0.30878 -0.23511,0.39219 -0.16943,0.13472 -0.16064,0.15209 0.079,0.15552 0.1483,0.001 0.23979,0.0543 0.20325,0.11615 -0.0364,0.0618 0.10492,0.25324 0.31427,0.4256 0.29836,0.24561 0.51331,0.31367 0.99383,0.31473 l 0.61315,9e-4 z m -1.8836,-2.59226 0.14115,-0.51845 h 0.63766 c 0.35072,0 0.63765,-0.055 0.63765,-0.12195 0,-0.0671 -0.0919,-0.12388 -0.20439,-0.12633 -0.16377,-0.001 -0.15144,-0.035 0.0621,-0.15881 0.14653,-0.085 0.2316,-0.19089 0.18901,-0.23535 -0.0426,-0.0445 -0.1756,-0.0259 -0.29563,0.0413 -0.24464,0.13675 -0.29276,-0.001 -0.0782,-0.22817 0.0778,-0.0813 0.0884,-0.14638 0.0233,-0.14638 -0.0643,0 -0.16972,0.0551 -0.23439,0.12286 -0.079,0.0825 -0.20327,9e-4 -0.37825,-0.24543 -0.28138,-0.39754 -1.13985,-1.01942 -1.28123,-0.92814 -0.0478,0.0308 -0.24189,0.39518 -0.4316,0.80979 l -0.34496,0.75389 0.44049,0.36911 c 0.41921,0.35128 0.43093,0.38014 0.24268,0.59744 -0.24727,0.28537 -0.0736,0.29676 0.30481,0.0199 l 0.28482,-0.20837 -0.26681,0.39137 c -0.14672,0.21526 -0.21326,0.39138 -0.14785,0.39138 0.0653,0 0.17249,-0.0961 0.23798,-0.2135 0.10427,-0.187 0.1195,-0.17642 0.12259,0.0853 0.005,0.40186 0.16454,0.1891 0.33892,-0.45135 z m -4.97365,-0.50677 c 0.13475,-0.23828 0.20035,-0.61775 0.20035,-1.15888 0,-0.44472 0.0512,-0.80459 0.1146,-0.80459 0.22925,0 1.62242,0.78026 1.56536,0.8767 -0.0321,0.0545 4.5e-4,0.0992 0.0728,0.0992 0.16527,0 0.0897,-0.26802 -0.43086,-1.52484 -0.56188,-1.35696 -0.68101,-1.52485 -1.08195,-1.52485 -0.25292,0 -0.44426,-0.12905 -0.75644,-0.5099 -0.3892,-0.47496 -0.41785,-0.48936 -0.41785,-0.21013 0,0.1649 0.0834,0.42415 0.18532,0.57613 0.23842,0.35555 0.0271,0.68337 -0.37292,0.57849 -0.3046,-0.0797 -0.86349,0.1106 -0.86349,0.29432 0,0.0688 0.11459,0.12505 0.25448,0.12505 0.45593,0 1.0081,0.27928 1.13719,0.57522 0.10969,0.25146 0.0645,0.37674 -0.3431,0.95319 -0.25815,0.365 -0.63912,0.75569 -0.84656,0.86814 -0.23367,0.12673 -0.31705,0.22569 -0.2191,0.26023 0.23745,0.0836 0.73305,-0.34718 1.12657,-0.97936 0.33444,-0.53726 0.60797,-0.7781 0.73409,-0.64637 0.032,0.0334 -0.003,0.13771 -0.0773,0.23154 -0.0745,0.0938 -0.23044,0.46217 -0.34639,0.81851 -0.17738,0.54507 -0.27434,0.67187 -0.61102,0.79893 l -0.40016,0.15107 0.36526,0.0103 c 0.41651,0.0103 0.58839,-0.16178 0.81085,-0.81299 l 0.15669,-0.45861 0.004,0.54894 c 0.003,0.30192 -0.071,0.69991 -0.16312,0.88441 -0.22346,0.44744 -0.0525,0.43153 0.20217,-0.0187 z m 2.30252,-0.74361 c 0,-0.0671 -0.0232,-0.12195 -0.0515,-0.12195 -0.0284,0 -0.0839,0.055 -0.12375,0.12195 -0.0397,0.0671 -0.0165,0.12195 0.0516,0.12195 0.068,0 0.12375,-0.055 0.12375,-0.12195 z m 0.57316,-0.50024 c 0.0898,-0.29385 0.30944,-0.57071 0.66353,-0.83633 0.29116,-0.21837 0.50116,-0.42652 0.46668,-0.46254 -0.0346,-0.0361 -0.15138,0.0116 -0.2598,0.10427 -0.17916,0.15438 -0.18473,0.14555 -0.0612,-0.0965 0.20422,-0.40039 0.16376,-0.46742 -0.087,-0.14403 l -0.22285,0.28749 0.0612,-0.33496 c 0.11562,-0.63176 -0.16224,-0.3354 -0.30346,0.32365 -0.11872,0.55416 -0.1967,0.68268 -0.49182,0.81034 -0.25305,0.10943 -0.32905,0.20634 -0.27298,0.34779 0.0429,0.10776 0.10505,0.29573 0.13852,0.4176 0.0769,0.28015 0.19788,0.14349 0.36906,-0.41682 z m 26.75519,-0.46581 c 0,-0.48333 -0.32763,-1.78884 -0.60273,-2.40179 -0.33194,-0.73946 -0.6188,-1.0156 -1.00049,-0.96308 -0.17809,0.0247 -0.36321,0.0484 -0.41139,0.0529 -0.0483,0.005 -0.0875,0.4159 -0.0875,0.91397 0,0.80567 0.0347,0.94865 0.31515,1.29673 l 0.31513,0.39121 -0.27413,0.23183 c -0.26658,0.22549 -0.268,0.23679 -0.0524,0.40967 0.29812,0.239 0.8285,0.40025 1.36045,0.41361 0.40846,0.0103 0.43795,-0.013 0.43795,-0.34511 z m -2.34002,-0.55344 c 0.12698,-0.15989 0.0799,-0.26879 -0.30627,-0.70713 -0.54973,-0.62398 -1.57777,-2.58119 -1.83757,-3.49844 -0.10324,-0.3644 -0.18766,-0.90888 -0.18766,-1.20994 0,-0.63972 -0.52085,-2.8101 -0.82723,-3.44712 -0.20897,-0.43446 -1.64218,-1.91457 -2.20924,-2.28154 -0.16059,-0.10402 -0.46206,-0.3538 -0.66995,-0.55524 -0.33559,-0.32528 -0.4488,-0.3629 -1.01007,-0.33575 -0.58642,0.0284 -0.66228,-6.9e-4 -1.04904,-0.40487 -1.4608,-1.52583 -4.78395,-3.11733 -8.13222,-3.89461 -1.85264,-0.43008 -5.6058,-0.87868 -5.6058,-0.67005 0,0.0573 0.14989,0.10414 0.33308,0.10414 0.80575,0 1.65232,1.11299 1.65232,2.17234 0,0.77822 -0.32163,1.81055 -0.70688,2.26888 -0.37649,0.44789 -0.29399,0.68224 0.24017,0.68224 0.46248,0 0.99673,-0.66296 1.22877,-1.52483 0.1084,-0.40257 0.39858,-1.15722 0.64488,-1.67704 l 0.44784,-0.9451 -0.46025,-0.0769 c -0.25313,-0.0423 -0.46025,-0.12478 -0.46025,-0.18327 0,-0.12195 0.78993,-0.13874 1.41823,-0.0302 l 0.42554,0.0737 0.0445,0.8251 c 0.0246,0.4538 0.11343,0.91165 0.19744,1.01744 0.13533,0.1702 0.23913,0.11588 0.90368,-0.473 0.66425,-0.58858 0.81079,-0.66532 1.27049,-0.66532 0.46328,0 1.6214,0.37091 1.83653,0.58816 0.0452,0.0454 -0.17437,0.064 -0.48763,0.0412 l -0.56954,-0.0416 -0.63393,0.89555 c -1.07181,1.51421 -1.46587,2.57124 -1.08245,2.90363 0.14366,0.12453 0.25383,0.13106 0.47048,0.028 0.22933,-0.10917 0.27114,-0.10259 0.22075,0.0346 -0.10556,0.28713 -0.73823,0.45116 -1.16838,0.30287 -0.28034,-0.0967 -0.41441,-0.24081 -0.51243,-0.55115 -0.18009,-0.56994 -0.0759,-0.9657 0.53233,-2.02196 0.59146,-1.02712 0.67924,-1.40084 0.22412,-0.95427 -0.42625,0.41829 -1.01068,1.72714 -1.1611,2.60034 -0.12582,0.73006 -0.13923,0.75043 -0.5219,0.78905 -0.21607,0.0219 -0.62557,-0.0533 -0.91002,-0.16663 l -0.51718,-0.2063 0.41037,-0.3533 c 0.46612,-0.40135 0.61786,-0.80453 0.7286,-1.93616 0.0945,-0.96498 -0.0419,-0.87743 -0.42117,0.2703 -0.18635,0.56398 -0.41169,0.9631 -0.72326,1.28088 -0.41926,0.42763 -0.50287,0.46162 -1.13544,0.46162 -0.49674,0 -0.74691,-0.0605 -0.91798,-0.22231 -0.20025,-0.18928 -0.30175,-0.20297 -0.68381,-0.0921 -1.02643,0.29772 -2.00828,-0.0241 -2.24595,-0.73622 -0.17278,-0.51774 -0.16389,-0.66495 0.0539,-0.89241 0.283,-0.29559 0.39322,-0.22789 0.25439,0.15629 -0.0692,0.19139 -0.0925,0.43811 -0.0521,0.54826 0.12866,0.35042 0.80466,0.68866 1.37718,0.68915 0.63756,4.6e-4 0.79839,-0.15572 1.10774,-1.07621 l 0.21835,-0.64972 -0.28904,-0.23197 c -0.3688,-0.29601 -0.54257,-0.29639 -0.69368,-9.1e-4 -0.17322,0.33806 -0.14953,0.62668 0.0724,0.88282 0.18316,0.21141 0.17497,0.22308 -0.15707,0.22308 -0.54823,0 -0.9386,-0.60482 -0.7409,-1.14797 0.15906,-0.43698 0.77205,-0.61027 1.374,-0.38844 0.2626,0.0968 0.50848,0.14354 0.5464,0.10401 0.0379,-0.0395 0.0679,-0.43342 0.0665,-0.87511 -9e-4,-0.84918 -0.15741,-1.1906 -0.66127,-1.45974 -0.37148,-0.19841 -0.38722,-0.18397 -0.38722,0.35561 0,0.98899 -0.55171,1.70389 -1.31496,1.70389 -0.5098,0 -0.71363,-0.26914 -0.63971,-0.84479 0.0364,-0.28379 0.16269,-0.62737 0.28053,-0.76349 0.27151,-0.31358 1.00758,-0.70947 1.31911,-0.70947 0.13104,0 0.23823,-0.063 0.23823,-0.13976 0,-0.1035 -0.87207,-0.12092 -3.35764,-0.0674 -1.84672,0.0397 -3.47226,0.10802 -3.61236,0.1518 -0.33521,0.10479 -0.41312,0.8828 -0.36512,3.64588 l 0.0359,2.06555 1.16787,0.028 c 5.92521,0.14198 8.66815,0.3421 10.82597,0.78977 2.73446,0.5673 5.63458,1.8759 7.83488,3.53525 1.14998,0.86727 1.48544,0.97476 1.64936,0.52862 0.1115,-0.30365 0.71564,-0.0947 1.82108,0.62988 1.2042,0.78929 1.66776,1.34956 2.43098,2.93822 0.63231,1.31607 1.49806,2.49599 2.26204,3.08285 l 0.48,0.36872 0.31437,-0.23379 c 0.17289,-0.12866 0.38195,-0.31889 0.46454,-0.42285 z m -8.98842,-7.58572 c -0.88298,-0.29672 -1.27451,-0.59263 -1.69381,-1.28007 -0.24211,-0.39696 -0.47956,-0.74717 -0.52764,-0.77819 -0.048,-0.0308 -0.25606,0.005 -0.46212,0.0799 -0.27718,0.10091 -0.48975,0.10039 -0.81698,-9.1e-4 -0.91943,-0.28772 -0.86683,-1.34828 0.0654,-1.32064 0.57333,0.0169 0.95504,-0.39241 0.79941,-0.85737 -0.0804,-0.24014 -0.2056,-0.34929 -0.4322,-0.37667 -0.17544,-0.0212 -0.31901,0.0197 -0.31901,0.0911 0,0.19017 -0.80502,1.09248 -1.33138,1.49231 -0.42313,0.32139 -1.12115,0.4745 -1.12115,0.24592 0,-0.0551 0.17439,-0.31575 0.38755,-0.57942 0.45815,-0.56672 0.91938,-1.27051 1.57691,-2.40618 0.37901,-0.65461 0.44394,-0.8433 0.30881,-0.89745 -0.0942,-0.0377 -0.1711,-0.14679 -0.1711,-0.24236 0,-0.26248 0.33295,-0.34176 0.55908,-0.13314 0.11008,0.10143 0.75186,0.46675 1.42631,0.81168 0.75458,0.38593 1.39131,0.80767 1.65533,1.09646 0.46887,0.51284 0.75146,1.28426 0.64014,1.74756 -0.11253,0.46841 -0.92946,0.74662 -1.35913,0.46282 -0.14565,-0.0961 -0.12453,-0.16847 0.13283,-0.45559 0.16831,-0.18767 0.33982,-0.45848 0.38114,-0.60182 0.11266,-0.39028 -0.37425,-0.91222 -1.35085,-1.44827 l -0.84121,-0.46174 -0.28806,0.34983 -0.28806,0.34978 0.34891,0.14874 c 0.5035,0.21459 0.69197,0.59897 0.76801,1.56622 0.0979,1.24754 0.2727,1.72823 0.84491,2.32594 0.57202,0.59746 1.01228,0.77544 1.30039,0.52569 0.35786,-0.31023 0.7658,-1.11812 0.77722,-1.53924 0.0116,-0.4117 0.021,-0.41984 0.41896,-0.35238 0.22411,0.0379 0.51098,0.1772 0.6375,0.30934 0.22044,0.23025 0.22199,0.26216 0.0377,0.76631 -0.2555,0.69829 -0.68071,1.15701 -1.21659,1.31245 -0.46923,0.13612 -0.57367,0.14231 -0.8472,0.0505 z m -3.45905,-2.91689 c 0.04,-0.10853 0.0201,-0.15753 -0.0458,-0.11473 -0.0636,0.0409 -0.11536,0.12621 -0.11536,0.18933 0,0.17545 0.0836,0.13679 0.16134,-0.0745 z m -16.31201,-1.36929 c -0.42028,-0.27107 -0.51359,-0.67781 -0.27527,-1.19983 0.20421,-0.44729 0.80742,-0.90316 1.18513,-0.89563 0.17912,10e-4 0.14374,0.0548 -0.1518,0.21931 -0.21194,0.11808 -0.4833,0.3706 -0.60303,0.56121 -0.44055,0.70146 0.22645,1.22756 0.91636,0.7228 0.35746,-0.26151 0.55617,-0.78377 0.83313,-2.18977 0.27527,-1.39744 0.32494,-1.50218 0.91482,-1.92914 0.38425,-0.27817 0.59513,-0.33766 1.23247,-0.34777 0.4229,-0.006 0.79766,0.0177 0.83283,0.0545 0.0351,0.0367 -0.0387,0.25209 -0.16429,0.4786 -0.44394,0.80118 -0.9492,2.6395 -0.9492,3.45352 0,0.82813 0.1769,1.16933 0.46118,0.8895 0.12092,-0.11912 0.1416,-0.11395 0.10117,0.0246 -0.16866,0.57919 -0.9657,0.43416 -1.30023,-0.23655 -0.31602,-0.63363 -0.19295,-1.89763 0.3174,-3.26042 0.22018,-0.58787 0.38536,-1.08461 0.36708,-1.1039 -0.0185,-0.0194 -0.16647,0.0284 -0.32932,0.10582 -0.43548,0.20726 -0.65038,0.78113 -0.70877,1.89279 -0.0706,1.34569 -0.55199,2.29922 -1.38564,2.74516 -0.53239,0.28479 -0.8698,0.28869 -1.29407,0.0151 z m 3.88557,11.81041 c 0.12979,-0.2657 0.23595,-0.5116 0.23595,-0.54647 0,-0.0348 -0.22336,-0.18102 -0.49634,-0.32482 -0.27299,-0.1438 -0.51417,-0.27789 -0.53594,-0.29796 -0.0924,-0.0852 0.93069,-1.38594 1.14628,-1.45742 0.13007,-0.0431 0.23637,-0.12955 0.23637,-0.19213 0,-0.39097 -0.7942,0.29237 -1.26124,1.08518 l -0.342,0.58055 0.35007,0.81809 c 0.19252,0.44993 0.36823,0.81807 0.39048,0.81807 0.0222,0 0.1466,-0.21737 0.27637,-0.48309 z m -0.93853,-1.98715 c 0.28522,-0.81633 0.4196,-1.00602 0.74022,-1.04501 0.38699,-0.0472 0.42476,-0.26637 0.0458,-0.26637 -0.31907,0 -0.69965,0.39922 -0.87216,0.91492 l -0.12247,0.36595 -0.008,-0.48795 c -0.004,-0.26838 0.0701,-0.64517 0.16598,-0.83735 0.20362,-0.40783 0.20927,-0.44351 0.0705,-0.44351 -0.15993,0 -0.47983,0.93027 -0.47983,1.39532 0,0.83627 0.23691,1.04405 0.46055,0.404 z m -2.5357,-2.69345 c 0.23968,-0.0872 0.45986,-0.1837 0.48931,-0.21447 0.0945,-0.0987 -1.03736,-2.10226 -1.15867,-2.05122 -0.0641,0.027 -0.10517,0.13149 -0.0909,0.23213 0.0142,0.10066 0.0614,0.63584 0.10479,1.18938 0.0432,0.5535 0.11047,1.00555 0.14921,1.00454 0.0387,-7.1e-4 0.26645,-0.0732 0.50613,-0.16036 z m 6.15368,-11.01535 c 0.27751,-0.36851 0.32446,-0.89921 0.0795,-0.89921 -0.22266,0 -0.888,0.81056 -0.888,1.0818 0,0.48265 0.37051,0.39898 0.80846,-0.18259 z m 13.16959,51.32186 c 0.0578,-0.23065 0.23223,-0.29276 2.05274,-0.73053 0.30603,-0.0737 0.70018,-0.12814 0.87591,-0.12117 0.26379,0.0103 0.23805,0.0333 -0.14766,0.1312 -0.25695,0.065 -0.88306,0.22386 -1.3914,0.35255 -0.50832,0.12866 -1.01175,0.31663 -1.11868,0.41772 -0.26059,0.24634 -0.34129,0.2315 -0.27091,-0.0497 z m -1.24819,-0.14444 c 0,-0.13356 0.73749,-0.24234 0.84954,-0.12531 0.0621,0.065 -0.0897,0.12909 -0.37227,0.15723 -0.26251,0.0261 -0.47727,0.0116 -0.47727,-0.0319 z m -34.658251,-0.13575 c 0.02685,-0.084 0.318289,-0.16527 0.675365,-0.18825 0.345508,-0.0223 0.683399,-0.0868 0.750873,-0.14366 0.18895,-0.15902 3.217553,-0.30468 3.217553,-0.15474 0,0.0689 -0.456941,0.16256 -1.02189,0.20943 -0.562038,0.0467 -1.337223,0.16054 -1.722622,0.25313 -0.896429,0.21534 -1.964639,0.2289 -1.899279,0.0241 z m 34.943331,-0.26914 c 0.12466,-0.10621 0.33491,-0.19369 0.46717,-0.19462 0.13228,-7.1e-4 0.35869,-0.0347 0.5032,-0.0752 0.14453,-0.0404 0.26279,-0.0195 0.26279,0.0468 0,0.0662 -0.22337,0.14886 -0.49636,0.18373 -0.27301,0.0348 -0.60146,0.1013 -0.72991,0.14782 -0.23028,0.0832 -0.23039,0.0817 -0.008,-0.10853 z m 1.28581,-0.7114 c 0.0639,-0.31235 0.0423,-0.33537 -0.3132,-0.33403 -0.20998,7.3e-4 -0.67084,0.0825 -1.02413,0.18156 -0.88342,0.24768 -1.0429,0.23762 -0.96813,-0.0609 0.0662,-0.26448 0.21022,-0.31734 0.32698,-0.12014 0.12952,0.21899 0.29401,-0.008 0.22229,-0.30564 -0.0951,-0.39576 0.036,-0.76703 0.30211,-0.85523 0.12195,-0.0404 0.19752,-0.13927 0.16805,-0.21972 -0.0379,-0.10324 0.14979,-0.14744 0.63795,-0.15032 0.38032,-10e-4 0.81441,-0.0658 0.96462,-0.14143 0.15024,-0.0755 0.37825,-0.17614 0.50672,-0.22359 0.13462,-0.0497 0.17482,-0.1093 0.095,-0.14065 -0.14518,-0.057 -1.21155,0.12428 -1.6132,0.27423 -0.21219,0.0792 -0.21718,0.0689 -0.0545,-0.11279 0.20662,-0.23075 1.98682,-0.35169 2.05427,-0.13955 0.0499,0.15704 -0.93201,0.62495 -1.53479,0.73136 -1.16514,0.20572 -1.47016,0.42653 -1.36706,0.98974 0.0532,0.29068 0.0672,0.29381 0.97436,0.21483 0.99416,-0.0866 1.12781,0.006 0.73723,0.511 -0.17529,0.22669 -0.1802,0.22245 -0.11459,-0.0987 z m -33.015999,0.0565 c -0.367904,-0.0484 -0.439797,-0.27002 -0.08757,-0.27002 0.128467,0 0.233576,-0.0534 0.233576,-0.11885 0,-0.0738 0.122234,-0.068 0.321166,0.0148 0.505042,0.21048 1.681074,0.11369 2.595251,-0.21348 0.151356,-0.0542 0.151356,-0.0752 0,-0.17508 -0.14536,-0.0961 -0.141241,-0.11382 0.02669,-0.11537 0.109213,-7.1e-4 0.25278,-0.0979 0.319025,-0.21535 0.105135,-0.18631 0.135571,-0.19019 0.239229,-0.0303 0.21564,0.33221 0.0681,0.53132 -0.591349,0.79812 -0.628042,0.2541 -2.270085,0.42917 -3.055974,0.32581 z m -0.306268,-0.60546 c 0.217744,-0.29002 0.363081,-0.39238 0.560204,-0.3946 0.114529,-9.1e-4 0.08091,0.093 -0.107962,0.30309 -0.327142,0.36373 -0.715671,0.44232 -0.452253,0.0914 z m 1.269767,-0.0156 c 0,-0.0588 0.06756,-0.16562 0.150159,-0.23721 0.113601,-0.0983 0.150152,-0.0725 0.150152,0.10698 0,0.13048 -0.06756,0.23721 -0.150152,0.23721 -0.08258,0 -0.150159,-0.0481 -0.150159,-0.10698 z m 31.08679,-0.22304 c 0.0461,-0.2507 0.43782,-0.37858 1.14662,-0.37446 l 0.52555,0.001 -0.63666,0.0965 c -0.35505,0.0538 -0.69652,0.18193 -0.77198,0.28974 -0.17782,0.25399 -0.31171,0.24646 -0.26353,-0.0148 z M 93.629552,211.7865 c 0.08431,-0.0354 0.185039,-0.0308 0.223852,0.0103 0.0388,0.0404 -0.03017,0.0694 -0.153287,0.0641 -0.136042,-0.006 -0.163729,-0.0347 -0.07056,-0.0738 z m -0.700724,-0.12195 c 0.08429,-0.0352 0.185037,-0.0307 0.223843,0.0103 0.0388,0.0405 -0.03017,0.0694 -0.15328,0.0641 -0.136056,-0.006 -0.163725,-0.0347 -0.07056,-0.0737 z m 0.459848,-0.11937 c 0.08029,-0.0338 0.211678,-0.0338 0.291974,0 0.08029,0.0338 0.01465,0.0616 -0.145986,0.0616 -0.160584,0 -0.226274,-0.0276 -0.145988,-0.0616 z"
         id="path976" />
    </g>
  </g>
</svg>
